<svg xmlns="http://www.w3.org/2000/svg" xmlns:xlink="http://www.w3.org/1999/xlink" xmlns:lucid="lucid" width="1643" height="1167.22"><g transform="translate(-138.5 -5.770357703840624)" lucid:page-tab-id="0_0"><path d="M0 0h1870.87v1322.84H0z" fill="#fff"/><path d="M440 25.77h980V140H440z" fill="none"/><use xlink:href="#a" transform="matrix(1,0,0,1,440,25.770357703840624) translate(325.32407407407425 26.666666666666643)"/><use xlink:href="#b" transform="matrix(1,0,0,1,440,25.770357703840624) translate(486.25 26.666666666666643)"/><use xlink:href="#c" transform="matrix(1,0,0,1,440,25.770357703840624) translate(534.3055555555555 26.666666666666643)"/><use xlink:href="#d" transform="matrix(1,0,0,1,440,25.770357703840624) translate(1.250000000000398 66.6666666666666)"/><use xlink:href="#b" transform="matrix(1,0,0,1,440,25.770357703840624) translate(128.5648148148151 66.6666666666666)"/><use xlink:href="#e" transform="matrix(1,0,0,1,440,25.770357703840624) translate(176.6203703703706 66.6666666666666)"/><use xlink:href="#f" transform="matrix(1,0,0,1,440,25.770357703840624) translate(350.41666666666674 66.6666666666666)"/><use xlink:href="#g" transform="matrix(1,0,0,1,440,25.770357703840624) translate(400.2314814814815 66.6666666666666)"/><use xlink:href="#h" transform="matrix(1,0,0,1,440,25.770357703840624) translate(537.1759259259259 66.6666666666666)"/><use xlink:href="#i" transform="matrix(1,0,0,1,440,25.770357703840624) translate(585.2314814814813 66.6666666666666)"/><use xlink:href="#f" transform="matrix(1,0,0,1,440,25.770357703840624) translate(707.2685185185182 66.6666666666666)"/><use xlink:href="#j" transform="matrix(1,0,0,1,440,25.770357703840624) translate(757.083333333333 66.6666666666666)"/><use xlink:href="#h" transform="matrix(1,0,0,1,440,25.770357703840624) translate(851.3425925925922 66.6666666666666)"/><use xlink:href="#k" transform="matrix(1,0,0,1,440,25.770357703840624) translate(899.3981481481478 66.6666666666666)"/><use xlink:href="#l" transform="matrix(1,0,0,1,440,25.770357703840624) translate(938.1944444444441 66.6666666666666)"/><use xlink:href="#m" transform="matrix(1,0,0,1,440,25.770357703840624) translate(392.175925925926 106.66666666666657)"/><use xlink:href="#n" transform="matrix(1,0,0,1,440,25.770357703840624) translate(490 146.66666666666652)"/><path d="M160 199.5a6 6 0 0 1 6-6h348a6 6 0 0 1 6 6v372a6 6 0 0 1-6 6H166a6 6 0 0 1-6-6z" stroke="#5e5e5e" stroke-width="3" fill="#fff"/><path d="M160 236.17h360M160 407h360" stroke="#5e5e5e" stroke-width="3" fill="none"/><use xlink:href="#o" transform="matrix(1,0,0,1,168,201.5) translate(118.35802469135803 17.944444444444443)"/><use xlink:href="#p" transform="matrix(1,0,0,1,172,244.16666666666669) translate(0 28.611111111111107)"/><use xlink:href="#q" transform="matrix(1,0,0,1,172,244.16666666666669) translate(13.518518518518519 28.611111111111107)"/><use xlink:href="#r" transform="matrix(1,0,0,1,172,244.16666666666669) translate(86.23456790123456 28.611111111111107)"/><use xlink:href="#s" transform="matrix(1,0,0,1,172,244.16666666666669) translate(105.37037037037035 28.611111111111107)"/><use xlink:href="#t" transform="matrix(1,0,0,1,172,244.16666666666669) translate(0 55.27777777777778)"/><use xlink:href="#u" transform="matrix(1,0,0,1,172,244.16666666666669) translate(19.1358024691358 55.27777777777778)"/><use xlink:href="#p" transform="matrix(1,0,0,1,172,244.16666666666669) translate(0 81.94444444444443)"/><use xlink:href="#v" transform="matrix(1,0,0,1,172,244.16666666666669) translate(13.518518518518519 81.94444444444443)"/><use xlink:href="#p" transform="matrix(1,0,0,1,172,244.16666666666669) translate(0 108.61111111111111)"/><use xlink:href="#w" transform="matrix(1,0,0,1,172,244.16666666666669) translate(13.518518518518519 108.61111111111111)"/><use xlink:href="#p" transform="matrix(1,0,0,1,172,244.16666666666669) translate(0 135.27777777777777)"/><use xlink:href="#x" transform="matrix(1,0,0,1,172,244.16666666666669) translate(13.518518518518519 135.27777777777777)"/><use xlink:href="#t" transform="matrix(1,0,0,1,172,415) translate(0 28.611111111111107)"/><use xlink:href="#y" transform="matrix(1,0,0,1,172,415) translate(19.1358024691358 28.611111111111107)"/><use xlink:href="#p" transform="matrix(1,0,0,1,172,415) translate(0 55.27777777777778)"/><use xlink:href="#z" transform="matrix(1,0,0,1,172,415) translate(13.518518518518519 55.27777777777778)"/><use xlink:href="#t" transform="matrix(1,0,0,1,172,415) translate(0 81.94444444444443)"/><use xlink:href="#A" transform="matrix(1,0,0,1,172,415) translate(19.1358024691358 81.94444444444443)"/><use xlink:href="#p" transform="matrix(1,0,0,1,172,415) translate(0 108.61111111111111)"/><use xlink:href="#B" transform="matrix(1,0,0,1,172,415) translate(13.518518518518519 108.61111111111111)"/><use xlink:href="#t" transform="matrix(1,0,0,1,172,415) translate(0 135.27777777777777)"/><use xlink:href="#C" transform="matrix(1,0,0,1,172,415) translate(19.1358024691358 135.27777777777777)"/><path d="M900 199.5a6 6 0 0 1 6-6h348a6 6 0 0 1 6 6v372a6 6 0 0 1-6 6H906a6 6 0 0 1-6-6z" stroke="#5e5e5e" stroke-width="3" fill="#fff"/><path d="M900 236.17h360M900 380.33h360" stroke="#5e5e5e" stroke-width="3" fill="none"/><use xlink:href="#D" transform="matrix(1,0,0,1,908.0056172675004,201.5) translate(133.820987654321 17.944444444444443)"/><use xlink:href="#p" transform="matrix(1,0,0,1,912.0056172675004,244.16666666666669) translate(0 28.94444444444445)"/><use xlink:href="#q" transform="matrix(1,0,0,1,912.0056172675004,244.16666666666669) translate(13.518518518518519 28.94444444444445)"/><use xlink:href="#r" transform="matrix(1,0,0,1,912.0056172675004,244.16666666666669) translate(86.23456790123456 28.94444444444445)"/><use xlink:href="#s" transform="matrix(1,0,0,1,912.0056172675004,244.16666666666669) translate(105.37037037037035 28.94444444444445)"/><use xlink:href="#t" transform="matrix(1,0,0,1,912.0056172675004,244.16666666666669) translate(0 55.61111111111112)"/><use xlink:href="#E" transform="matrix(1,0,0,1,912.0056172675004,244.16666666666669) translate(19.1358024691358 55.61111111111112)"/><use xlink:href="#p" transform="matrix(1,0,0,1,912.0056172675004,244.16666666666669) translate(0 82.27777777777777)"/><use xlink:href="#F" transform="matrix(1,0,0,1,912.0056172675004,244.16666666666669) translate(13.518518518518519 82.27777777777777)"/><use xlink:href="#p" transform="matrix(1,0,0,1,912.0056172675004,244.16666666666669) translate(0 108.94444444444446)"/><use xlink:href="#G" transform="matrix(1,0,0,1,912.0056172675004,244.16666666666669) translate(13.518518518518519 108.94444444444446)"/><g><use xlink:href="#t" transform="matrix(1,0,0,1,912.0056172675004,388.33333333333337) translate(0 28.77777777777778)"/><use xlink:href="#H" transform="matrix(1,0,0,1,912.0056172675004,388.33333333333337) translate(19.1358024691358 28.77777777777778)"/><use xlink:href="#p" transform="matrix(1,0,0,1,912.0056172675004,388.33333333333337) translate(0 55.44444444444445)"/><use xlink:href="#I" transform="matrix(1,0,0,1,912.0056172675004,388.33333333333337) translate(13.518518518518519 55.44444444444445)"/><use xlink:href="#p" transform="matrix(1,0,0,1,912.0056172675004,388.33333333333337) translate(0 82.11111111111111)"/><use xlink:href="#J" transform="matrix(1,0,0,1,912.0056172675004,388.33333333333337) translate(13.518518518518519 82.11111111111111)"/><use xlink:href="#p" transform="matrix(1,0,0,1,912.0056172675004,388.33333333333337) translate(0 108.77777777777777)"/><use xlink:href="#K" transform="matrix(1,0,0,1,912.0056172675004,388.33333333333337) translate(13.518518518518519 108.77777777777777)"/><use xlink:href="#p" transform="matrix(1,0,0,1,912.0056172675004,388.33333333333337) translate(0 135.44444444444446)"/><use xlink:href="#L" transform="matrix(1,0,0,1,912.0056172675004,388.33333333333337) translate(13.518518518518519 135.44444444444446)"/><use xlink:href="#M" transform="matrix(1,0,0,1,912.0056172675004,388.33333333333337) translate(0 162.11111111111111)"/><use xlink:href="#N" transform="matrix(1,0,0,1,912.0056172675004,388.33333333333337) translate(13.518518518518519 162.11111111111111)"/></g><path d="M681.43 386.35H522.5v-2h158.93zm216.08 0H738.58v-2H897.5z" stroke="#5e5e5e" stroke-width=".05" fill="#5e5e5e"/><path d="M522.53 386.35h-1.03v-2h1.03z" fill="#5e5e5e"/><path d="M522.55 386.37h-1.07v-2.05h1.07zm-1.02-2v1.95h.97v-1.95z" stroke="#5e5e5e" stroke-width=".05" fill="#5e5e5e"/><path d="M898.5 386.35h-1.02v-2h1.03z" fill="#5e5e5e"/><path d="M898.53 386.37h-1.08v-2.05h1.08zm-1.03-2v1.95h.98v-1.95z" stroke="#5e5e5e" stroke-width=".05" fill="#5e5e5e"/><g><use xlink:href="#O" transform="matrix(1,0,0,1,681.4349073575559,374.67848312845996) translate(0 14.222222222222223)"/></g><g><use xlink:href="#P" transform="matrix(1,0,0,1,520.4999499583737,389.3451497951252) translate(0 14.4)"/></g><g><use xlink:href="#Q" transform="matrix(1,0,0,1,872.0056672258739,359.74514984374787) translate(0 14.4)"/></g><path d="M900 879.5a6 6 0 0 1 6-6h348a6 6 0 0 1 6 6v266a6 6 0 0 1-6 6H906a6 6 0 0 1-6-6z" stroke="#5e5e5e" stroke-width="3" fill="#fff"/><path d="M900 916.16h360m-360 64.16h360" stroke="#5e5e5e" stroke-width="3" fill="none"/><g><use xlink:href="#R" transform="matrix(1,0,0,1,908,881.4891143121349) translate(103.63580246913581 17.944444444444443)"/></g><g><use xlink:href="#p" transform="matrix(1,0,0,1,912,988.3224476454682) translate(0 28.611111111111107)"/><use xlink:href="#S" transform="matrix(1,0,0,1,912,988.3224476454682) translate(13.518518518518519 28.611111111111107)"/><use xlink:href="#p" transform="matrix(1,0,0,1,912,988.3224476454682) translate(0 55.27777777777778)"/><use xlink:href="#T" transform="matrix(1,0,0,1,912,988.3224476454682) translate(13.518518518518519 55.27777777777778)"/><use xlink:href="#p" transform="matrix(1,0,0,1,912,988.3224476454682) translate(0 81.94444444444443)"/><use xlink:href="#U" transform="matrix(1,0,0,1,912,988.3224476454682) translate(13.518518518518519 81.94444444444443)"/><use xlink:href="#p" transform="matrix(1,0,0,1,912,988.3224476454682) translate(0 108.61111111111111)"/><use xlink:href="#V" transform="matrix(1,0,0,1,912,988.3224476454682) translate(13.518518518518519 108.61111111111111)"/><use xlink:href="#p" transform="matrix(1,0,0,1,912,988.3224476454682) translate(0 135.27777777777777)"/><use xlink:href="#W" transform="matrix(1,0,0,1,912,988.3224476454682) translate(13.518518518518519 135.27777777777777)"/></g><path d="M1081.34 871V603.47" stroke="#5e5e5e" stroke-width="2" fill="none"/><path d="M1082.34 872h-2v-1.04h2z" stroke="#5e5e5e" stroke-width=".05" fill="#5e5e5e"/><path d="M1081.34 580.96l12.73 21.52h-25.45z" stroke="#5e5e5e" stroke-width="2" fill="#fff"/><path d="M341 1006.45l.06.82.2.76.3.73.4.67.5.6.6.5.67.4.73.3.76.2.82.06h16.5v2h-16.58l-1.06-.1-1.06-.25-1.02-.42-.94-.58-.83-.7-.72-.85-.57-.93-.42-1.02-.26-1.06-.08-1.07V580h2zm556.5 5.04v2H442.46v-2z" stroke="#5e5e5e" stroke-width=".05" fill="#5e5e5e"/><path d="M898.5 1013.5h-1.03v-2h1.03z" fill="#5e5e5e"/><path d="M898.52 1013.5h-1.07v-2.04h1.07zm-1.02-2v1.96h.98v-1.95z" stroke="#5e5e5e" stroke-width=".05" fill="#5e5e5e"/><path d="M341 580.03h-2V579h2z" fill="#5e5e5e"/><path d="M341.02 580.05h-2.04v-1.07h2.04zm-2-1.02v.97h1.96v-.98z" stroke="#5e5e5e" stroke-width=".05" fill="#5e5e5e"/><g><use xlink:href="#X" transform="matrix(1,0,0,1,362.55482555998185,1001.8224476454683) translate(0 14.222222222222223)"/></g><g><use xlink:href="#Q" transform="matrix(1,0,0,1,872.0000499999999,986.889114312135) translate(0 14.4)"/></g><g><use xlink:href="#P" transform="matrix(1,0,0,1,302,578.1999500000004) translate(0 14.4)"/></g><path d="M1400 786a6 6 0 0 1 6-6h348a6 6 0 0 1 6 6v159a6 6 0 0 1-6 6h-348a6 6 0 0 1-6-6z" stroke="#5e5e5e" stroke-width="3" fill="#fff"/><path d="M1400 822.67h360m-360 64.16h360" stroke="#5e5e5e" stroke-width="3" fill="none"/><g><use xlink:href="#Y" transform="matrix(1,0,0,1,1408,788) translate(121.38271604938271 17.944444444444443)"/></g><path d="M1580 777.5v-92.75a6 6 0 0 0-6-6h-488a6 6 0 0 1-6-6v-69.27" stroke="#5e5e5e" stroke-width="2" fill="none"/><path d="M1581 778.5h-2v-1.03h2z" stroke="#5e5e5e" stroke-width=".05" fill="#5e5e5e"/><path d="M1080 580.96l12.73 21.52h-25.45z" stroke="#5e5e5e" stroke-width="2" fill="#fff"/><path d="M1386.7 1013.5h-124.2v-2h124.2zm194.3-6.97l-.08 1.06-.26 1.05-.42 1.02-.57.94-.72.84-.83.7-.94.6-1.02.4-1.06.27-1.06.1H1466.6v-2h107.36l.82-.08.76-.18.73-.3.67-.4.6-.52.5-.6.4-.66.3-.73.2-.76.06-.82V953.5h2z" stroke="#5e5e5e" stroke-width=".05" fill="#5e5e5e"/><path d="M1262.53 1013.5h-1.03v-2h1.03z" fill="#5e5e5e"/><path d="M1262.55 1013.5h-1.08v-2.04h1.08zm-1.02-2v1.96h.97v-1.95z" stroke="#5e5e5e" stroke-width=".05" fill="#5e5e5e"/><path d="M1581 953.53h-2v-1.03h2z" fill="#5e5e5e"/><path d="M1581.03 953.55h-2.06v-1.07h2.06zm-2-1.02v.97h1.94v-.98z" stroke="#5e5e5e" stroke-width=".05" fill="#5e5e5e"/><g><use xlink:href="#X" transform="matrix(1,0,0,1,1386.6957860484222,1001.8224476454683) translate(0 14.222222222222223)"/></g><g><use xlink:href="#Q" transform="matrix(1,0,0,1,1260.9999500000001,1016.4891143121349) translate(0 14.4)"/></g><g><use xlink:href="#P" transform="matrix(1,0,0,1,1542,951.6999500000003) translate(0 14.4)"/></g><defs><path fill="#3a414a" d="M24-248c120-7 223 5 221 122C244-46 201 0 124 0H24v-248zM76-40c74 7 117-18 117-86 0-67-45-88-117-82v168" id="Z"/><path fill="#3a414a" d="M25-224v-37h50v37H25zM25 0v-190h50V0H25" id="aa"/><path fill="#3a414a" d="M133-34C117-15 103 5 69 4 32 3 11-16 11-54c-1-60 55-63 116-61 1-26-3-47-28-47-18 1-26 9-28 27l-52-2c7-38 36-58 82-57s74 22 75 68l1 82c-1 14 12 18 25 15v27c-30 8-71 5-69-32zm-48 3c29 0 43-24 42-57-32 0-66-3-65 30 0 17 8 27 23 27" id="ab"/><path fill="#3a414a" d="M195-6C206 82 75 100 31 46c-4-6-6-13-8-21l49-6c3 16 16 24 34 25 40 0 42-37 40-79-11 22-30 35-61 35-53 0-70-43-70-97 0-56 18-96 73-97 30 0 46 14 59 34l2-30h47zm-90-29c32 0 41-27 41-63 0-35-9-62-40-62-32 0-39 29-40 63 0 36 9 62 39 62" id="ac"/><path fill="#3a414a" d="M135-150c-39-12-60 13-60 57V0H25l-1-190h47c2 13-1 29 3 40 6-28 27-53 61-41v41" id="ad"/><path fill="#3a414a" d="M220-157c-53 9-28 100-34 157h-49v-107c1-27-5-49-29-50C55-147 81-57 75 0H25l-1-190h47c2 12-1 28 3 38 10-53 101-56 108 0 13-22 24-43 59-42 82 1 51 116 57 194h-49v-107c-1-25-5-48-29-50" id="ae"/><g id="a"><use transform="matrix(0.0925925925925925,0,0,0.0925925925925925,0,0)" xlink:href="#Z"/><use transform="matrix(0.0925925925925925,0,0,0.0925925925925925,23.98148148148146,0)" xlink:href="#aa"/><use transform="matrix(0.0925925925925925,0,0,0.0925925925925925,33.24074074074071,0)" xlink:href="#ab"/><use transform="matrix(0.0925925925925925,0,0,0.0925925925925925,51.75925925925921,0)" xlink:href="#ac"/><use transform="matrix(0.0925925925925925,0,0,0.0925925925925925,72.03703703703697,0)" xlink:href="#ad"/><use transform="matrix(0.0925925925925925,0,0,0.0925925925925925,84.99999999999991,0)" xlink:href="#ab"/><use transform="matrix(0.0925925925925925,0,0,0.0925925925925925,103.51851851851842,0)" xlink:href="#ae"/><use transform="matrix(0.0925925925925925,0,0,0.0925925925925925,133.148148148148,0)" xlink:href="#ab"/></g><path fill="#3a414a" d="M88-194c31-1 46 15 58 34l-1-101h50l1 261h-48c-2-10 0-23-3-31C134-8 116 4 84 4 32 4 16-41 15-95c0-56 19-97 73-99zm17 164c33 0 40-30 41-66 1-37-9-64-41-64s-38 30-39 65c0 43 13 65 39 65" id="af"/><path fill="#3a414a" d="M185-48c-13 30-37 53-82 52C43 2 14-33 14-96s30-98 90-98c62 0 83 45 84 108H66c0 31 8 55 39 56 18 0 30-7 34-22zm-45-69c5-46-57-63-70-21-2 6-4 13-4 21h74" id="ag"/><g id="b"><use transform="matrix(0.0925925925925925,0,0,0.0925925925925925,0,0)" xlink:href="#af"/><use transform="matrix(0.0925925925925925,0,0,0.0925925925925925,20.277777777777757,0)" xlink:href="#ag"/></g><path fill="#3a414a" d="M190-63c-7 42-38 67-86 67-59 0-84-38-90-98-12-110 154-137 174-36l-49 2c-2-19-15-32-35-32-30 0-35 28-38 64-6 74 65 87 74 30" id="ah"/><path fill="#3a414a" d="M25 0v-261h50V0H25" id="ai"/><path fill="#3a414a" d="M137-138c1-29-70-34-71-4 15 46 118 7 119 86 1 83-164 76-172 9l43-7c4 19 20 25 44 25 33 8 57-30 24-41C81-84 22-81 20-136c-2-80 154-74 161-7" id="aj"/><g id="c"><use transform="matrix(0.0925925925925925,0,0,0.0925925925925925,0,0)" xlink:href="#ah"/><use transform="matrix(0.0925925925925925,0,0,0.0925925925925925,18.5185185185185,0)" xlink:href="#ai"/><use transform="matrix(0.0925925925925925,0,0,0.0925925925925925,27.77777777777775,0)" xlink:href="#ab"/><use transform="matrix(0.0925925925925925,0,0,0.0925925925925925,46.29629629629625,0)" xlink:href="#aj"/><use transform="matrix(0.0925925925925925,0,0,0.0925925925925925,64.81481481481475,0)" xlink:href="#aj"/><use transform="matrix(0.0925925925925925,0,0,0.0925925925925925,83.33333333333326,0)" xlink:href="#ag"/><use transform="matrix(0.0925925925925925,0,0,0.0925925925925925,101.85185185185175,0)" xlink:href="#aj"/></g><path fill="#3a414a" d="M230 0l2-204L168 0h-37L68-204 70 0H24v-248h70l56 185 57-185h69V0h-46" id="ak"/><path fill="#3a414a" d="M110-194c64 0 96 36 96 99 0 64-35 99-97 99-61 0-95-36-95-99 0-62 34-99 96-99zm-1 164c35 0 45-28 45-65 0-40-10-65-43-65-34 0-45 26-45 65 0 36 10 65 43 65zM81-208v-5l45-51h45v8l-60 48H81" id="al"/><path fill="#3a414a" d="M85 4C-2 5 27-109 22-190h50c7 57-23 150 33 157 60-5 35-97 40-157h50l1 190h-47c-2-12 1-28-3-38-12 25-28 42-61 42" id="am"/><path fill="#3a414a" d="M110-194c64 0 96 36 96 99 0 64-35 99-97 99-61 0-95-36-95-99 0-62 34-99 96-99zm-1 164c35 0 45-28 45-65 0-40-10-65-43-65-34 0-45 26-45 65 0 36 10 65 43 65" id="an"/><g id="d"><use transform="matrix(0.0925925925925925,0,0,0.0925925925925925,0,0)" xlink:href="#ak"/><use transform="matrix(0.0925925925925925,0,0,0.0925925925925925,27.68518518518516,0)" xlink:href="#al"/><use transform="matrix(0.0925925925925925,0,0,0.0925925925925925,47.96296296296292,0)" xlink:href="#af"/><use transform="matrix(0.0925925925925925,0,0,0.0925925925925925,68.24074074074068,0)" xlink:href="#am"/><use transform="matrix(0.0925925925925925,0,0,0.0925925925925925,88.51851851851843,0)" xlink:href="#ai"/><use transform="matrix(0.0925925925925925,0,0,0.0925925925925925,97.77777777777769,0)" xlink:href="#an"/></g><path fill="#3a414a" d="M114-157C55-157 80-60 75 0H25v-261h50l-1 109c12-26 28-41 61-42 86-1 58 113 63 194h-50c-7-57 23-157-34-157" id="ao"/><g id="e"><use transform="matrix(0.0925925925925925,0,0,0.0925925925925925,0,0)" xlink:href="#ah"/><use transform="matrix(0.0925925925925925,0,0,0.0925925925925925,18.5185185185185,0)" xlink:href="#ao"/><use transform="matrix(0.0925925925925925,0,0,0.0925925925925925,38.79629629629626,0)" xlink:href="#ab"/><use transform="matrix(0.0925925925925925,0,0,0.0925925925925925,57.314814814814774,0)" xlink:href="#ae"/><use transform="matrix(0.0925925925925925,0,0,0.0925925925925925,86.94444444444437,0)" xlink:href="#ab"/><use transform="matrix(0.0925925925925925,0,0,0.0925925925925925,105.46296296296288,0)" xlink:href="#af"/><use transform="matrix(0.0925925925925925,0,0,0.0925925925925925,125.74074074074065,0)" xlink:href="#an"/><use transform="matrix(0.0925925925925925,0,0,0.0925925925925925,146.0185185185184,0)" xlink:href="#aj"/></g><g id="f"><use transform="matrix(0.0925925925925925,0,0,0.0925925925925925,0,0)" xlink:href="#af"/><use transform="matrix(0.0925925925925925,0,0,0.0925925925925925,20.277777777777757,0)" xlink:href="#an"/></g><path fill="#3a414a" d="M169-182c-1-43-94-46-97-3 18 66 151 10 154 114 3 95-165 93-204 36-6-8-10-19-12-30l50-8c3 46 112 56 116 5-17-69-150-10-154-114-4-87 153-88 188-35 5 8 8 18 10 28" id="ap"/><path fill="#3a414a" d="M115-3C79 11 28 4 28-45v-112H4v-33h27l15-45h31v45h36v33H77v99c-1 23 16 31 38 25v30" id="aq"/><g id="g"><use transform="matrix(0.0925925925925925,0,0,0.0925925925925925,0,0)" xlink:href="#ap"/><use transform="matrix(0.0925925925925925,0,0,0.0925925925925925,22.2222222222222,0)" xlink:href="#aa"/><use transform="matrix(0.0925925925925925,0,0,0.0925925925925925,31.481481481481453,0)" xlink:href="#aj"/><use transform="matrix(0.0925925925925925,0,0,0.0925925925925925,49.99999999999995,0)" xlink:href="#aq"/><use transform="matrix(0.0925925925925925,0,0,0.0925925925925925,61.01851851851846,0)" xlink:href="#ag"/><use transform="matrix(0.0925925925925925,0,0,0.0925925925925925,79.53703703703697,0)" xlink:href="#ae"/><use transform="matrix(0.0925925925925925,0,0,0.0925925925925925,109.16666666666656,0)" xlink:href="#ab"/></g><g id="h"><use transform="matrix(0.0925925925925925,0,0,0.0925925925925925,0,0)" xlink:href="#af"/><use transform="matrix(0.0925925925925925,0,0,0.0925925925925925,20.277777777777757,0)" xlink:href="#ag"/></g><path fill="#3a414a" d="M67-125c0 54 23 88 75 88 28 0 53-7 68-21v-34h-60v-39h108v91C232-14 192 4 140 4 58 4 20-42 15-125 8-236 126-280 215-234c19 10 29 26 37 47l-47 15c-11-23-29-39-63-39-53 1-75 33-75 86" id="ar"/><path fill="#3a414a" d="M132-34C116-15 102 5 68 4 31 3 10-16 10-54c-1-60 55-63 116-61 1-26-3-47-28-47-18 1-26 9-28 27l-52-2c7-38 36-58 82-57s74 22 75 68l1 82c-1 14 12 18 25 15v27c-30 8-71 5-69-32zm-48 3c29 0 43-24 42-57-32 0-66-3-65 30 0 17 8 27 23 27zm82-228c-2 27-9 52-40 51-27-1-66-46-73 0H29c0-29 9-51 39-51 28 0 66 44 74 0h24" id="as"/><g id="i"><use transform="matrix(0.0925925925925925,0,0,0.0925925925925925,0,0)" xlink:href="#ar"/><use transform="matrix(0.0925925925925925,0,0,0.0925925925925925,25.925925925925903,0)" xlink:href="#ag"/><use transform="matrix(0.0925925925925925,0,0,0.0925925925925925,44.4444444444444,0)" xlink:href="#aj"/><use transform="matrix(0.0925925925925925,0,0,0.0925925925925925,62.962962962962905,0)" xlink:href="#aq"/><use transform="matrix(0.0925925925925925,0,0,0.0925925925925925,73.98148148148141,0)" xlink:href="#as"/><use transform="matrix(0.0925925925925925,0,0,0.0925925925925925,92.49999999999991,0)" xlink:href="#an"/></g><g id="j"><use transform="matrix(0.0925925925925925,0,0,0.0925925925925925,0,0)" xlink:href="#ap"/><use transform="matrix(0.0925925925925925,0,0,0.0925925925925925,22.2222222222222,0)" xlink:href="#ag"/><use transform="matrix(0.0925925925925925,0,0,0.0925925925925925,40.740740740740705,0)" xlink:href="#aq"/><use transform="matrix(0.0925925925925925,0,0,0.0925925925925925,51.75925925925921,0)" xlink:href="#an"/><use transform="matrix(0.0925925925925925,0,0,0.0925925925925925,72.03703703703697,0)" xlink:href="#ad"/></g><path fill="#3a414a" d="M136-208V0H84v-208H4v-40h212v40h-80" id="at"/><path fill="#3a414a" d="M24 0v-248h52V0H24" id="au"/><g id="k"><use transform="matrix(0.0925925925925925,0,0,0.0925925925925925,0,0)" xlink:href="#at"/><use transform="matrix(0.0925925925925925,0,0,0.0925925925925925,20.277777777777757,0)" xlink:href="#au"/></g><g id="l"><use transform="matrix(0.0925925925925925,0,0,0.0925925925925925,0,0)" xlink:href="#af"/><use transform="matrix(0.0925925925925925,0,0,0.0925925925925925,20.277777777777757,0)" xlink:href="#an"/></g><path fill="#3a414a" d="M24 0v-248h195v40H76v63h132v40H76v65h150V0H24" id="av"/><path fill="#3a414a" d="M240-174c0 40-23 61-54 70L253 0h-59l-57-94H76V0H24v-248c93 4 217-23 216 74zM76-134c48-2 112 12 112-38 0-48-66-32-112-35v73" id="aw"/><path fill="#3a414a" d="M199 0l-22-63H83L61 0H9l90-248h61L250 0h-51zm-33-102l-36-108c-10 38-24 72-36 108h72" id="ax"/><path fill="#3a414a" d="M175 0L67-191c6 58 2 128 3 191H24v-248h59L193-55c-6-58-2-129-3-193h46V0h-61" id="ay"/><path fill="#3a414a" d="M4 7l51-268h42L46 7H4" id="az"/><path fill="#3a414a" d="M67-125c0 53 21 87 73 88 37 1 54-22 65-47l45 17C233-25 199 4 140 4 58 4 20-42 15-125 8-235 124-281 211-232c18 10 29 29 36 50l-46 12c-8-25-30-41-62-41-52 0-71 34-72 86" id="aA"/><g id="m"><use transform="matrix(0.0925925925925925,0,0,0.0925925925925925,0,0)" xlink:href="#Z"/><use transform="matrix(0.0925925925925925,0,0,0.0925925925925925,23.98148148148146,0)" xlink:href="#av"/><use transform="matrix(0.0925925925925925,0,0,0.0925925925925925,46.20370370370366,0)" xlink:href="#at"/><use transform="matrix(0.0925925925925925,0,0,0.0925925925925925,66.48148148148141,0)" xlink:href="#aw"/><use transform="matrix(0.0925925925925925,0,0,0.0925925925925925,90.46296296296288,0)" xlink:href="#ax"/><use transform="matrix(0.0925925925925925,0,0,0.0925925925925925,114.44444444444433,0)" xlink:href="#ay"/><use transform="matrix(0.0925925925925925,0,0,0.0925925925925925,138.4259259259258,0)" xlink:href="#az"/><use transform="matrix(0.0925925925925925,0,0,0.0925925925925925,147.68518518518505,0)" xlink:href="#ax"/><use transform="matrix(0.0925925925925925,0,0,0.0925925925925925,171.66666666666652,0)" xlink:href="#aA"/></g><path fill="#333" d="M212-179c-10-28-35-45-73-45-59 0-87 40-87 99 0 60 29 101 89 101 43 0 62-24 78-52l27 14C228-24 195 4 139 4 59 4 22-46 18-125c-6-104 99-153 187-111 19 9 31 26 39 46" id="aB"/><path fill="#333" d="M106-169C34-169 62-67 57 0H25v-261h32l-1 103c12-21 28-36 61-36 89 0 53 116 60 194h-32v-121c2-32-8-49-39-48" id="aC"/><path fill="#333" d="M141-36C126-15 110 5 73 4 37 3 15-17 15-53c-1-64 63-63 125-63 3-35-9-54-41-54-24 1-41 7-42 31l-33-3c5-37 33-52 76-52 45 0 72 20 72 64v82c-1 20 7 32 28 27v20c-31 9-61-2-59-35zM48-53c0 20 12 33 32 33 41-3 63-29 60-74-43 2-92-5-92 41" id="aD"/><path fill="#333" d="M210-169c-67 3-38 105-44 169h-31v-121c0-29-5-50-35-48C34-165 62-65 56 0H25l-1-190h30c1 10-1 24 2 32 10-44 99-50 107 0 11-21 27-35 58-36 85-2 47 119 55 194h-31v-121c0-29-5-49-35-48" id="aE"/><path fill="#333" d="M85-194c31 0 48 13 60 33l-1-100h32l1 261h-30c-2-10 0-23-3-31C134-8 116 4 85 4 32 4 16-35 15-94c0-66 23-100 70-100zm9 24c-40 0-46 34-46 75 0 40 6 74 45 74 42 0 51-32 51-76 0-42-9-74-50-73" id="aF"/><path fill="#333" d="M100-194c62-1 85 37 85 99 1 63-27 99-86 99S16-35 15-95c0-66 28-99 85-99zM99-20c44 1 53-31 53-75 0-43-8-75-51-75s-53 32-53 75 10 74 51 75" id="aG"/><path fill="#333" d="M135-143c-3-34-86-38-87 0 15 53 115 12 119 90S17 21 10-45l28-5c4 36 97 45 98 0-10-56-113-15-118-90-4-57 82-63 122-42 12 7 21 19 24 35" id="aH"/><g id="o"><use transform="matrix(0.06172839506172839,0,0,0.06172839506172839,0,0)" xlink:href="#aB"/><use transform="matrix(0.06172839506172839,0,0,0.06172839506172839,15.987654320987653,0)" xlink:href="#aC"/><use transform="matrix(0.06172839506172839,0,0,0.06172839506172839,28.333333333333332,0)" xlink:href="#aD"/><use transform="matrix(0.06172839506172839,0,0,0.06172839506172839,40.67901234567901,0)" xlink:href="#aE"/><use transform="matrix(0.06172839506172839,0,0,0.06172839506172839,59.1358024691358,0)" xlink:href="#aD"/><use transform="matrix(0.06172839506172839,0,0,0.06172839506172839,71.48148148148148,0)" xlink:href="#aF"/><use transform="matrix(0.06172839506172839,0,0,0.06172839506172839,83.82716049382717,0)" xlink:href="#aG"/><use transform="matrix(0.06172839506172839,0,0,0.06172839506172839,96.17283950617285,0)" xlink:href="#aH"/></g><path fill="#333" d="M16-82v-28h88v28H16" id="aI"/><use transform="matrix(0.06172839506172839,0,0,0.06172839506172839,0,0)" xlink:href="#aI" id="p"/><path fill="#333" d="M24-231v-30h32v30H24zM24 0v-190h32V0H24" id="aJ"/><path fill="#333" d="M33-154v-36h34v36H33zM33 0v-36h34V0H33" id="aK"/><path fill="#333" d="M117-194c89-4 53 116 60 194h-32v-121c0-31-8-49-39-48C34-167 62-67 57 0H25l-1-190h30c1 10-1 24 2 32 11-22 29-35 61-36" id="aL"/><path fill="#333" d="M84 4C-5 8 30-112 23-190h32v120c0 31 7 50 39 49 72-2 45-101 50-169h31l1 190h-30c-1-10 1-25-2-33-11 22-28 36-60 37" id="aM"/><g id="q"><use transform="matrix(0.06172839506172839,0,0,0.06172839506172839,0,0)" xlink:href="#aJ"/><use transform="matrix(0.06172839506172839,0,0,0.06172839506172839,4.876543209876543,0)" xlink:href="#aF"/><use transform="matrix(0.06172839506172839,0,0,0.06172839506172839,17.22222222222222,0)" xlink:href="#aK"/><use transform="matrix(0.06172839506172839,0,0,0.06172839506172839,23.39506172839506,0)" xlink:href="#aL"/><use transform="matrix(0.06172839506172839,0,0,0.06172839506172839,35.74074074074074,0)" xlink:href="#aM"/><use transform="matrix(0.06172839506172839,0,0,0.06172839506172839,48.08641975308642,0)" xlink:href="#aE"/></g><path fill="#333" d="M18-150v-26h174v26H18zm0 90v-26h174v26H18" id="aN"/><use transform="matrix(0.06172839506172839,0,0,0.06172839506172839,0,0)" xlink:href="#aN" id="r"/><path fill="#333" d="M59-47c-2 24 18 29 38 22v24C64 9 27 4 27-40v-127H5v-23h24l9-43h21v43h35v23H59v120" id="aO"/><path fill="#333" d="M33 0v-248h34V0H33" id="aP"/><path fill="#333" d="M96-169c-40 0-48 33-48 73s9 75 48 75c24 0 41-14 43-38l32 2c-6 37-31 61-74 61-59 0-76-41-82-99-10-93 101-131 147-64 4 7 5 14 7 22l-32 3c-4-21-16-35-41-35" id="aQ"/><path fill="#333" d="M114-163C36-179 61-72 57 0H25l-1-190h30c1 12-1 29 2 39 6-27 23-49 58-41v29" id="aR"/><path fill="#333" d="M100-194c63 0 86 42 84 106H49c0 40 14 67 53 68 26 1 43-12 49-29l28 8c-11 28-37 45-77 45C44 4 14-33 15-96c1-61 26-98 85-98zm52 81c6-60-76-77-97-28-3 7-6 17-6 28h103" id="aS"/><g id="s"><use transform="matrix(0.06172839506172839,0,0,0.06172839506172839,0,0)" xlink:href="#aD"/><use transform="matrix(0.06172839506172839,0,0,0.06172839506172839,12.345679012345679,0)" xlink:href="#aM"/><use transform="matrix(0.06172839506172839,0,0,0.06172839506172839,24.691358024691358,0)" xlink:href="#aO"/><use transform="matrix(0.06172839506172839,0,0,0.06172839506172839,30.864197530864196,0)" xlink:href="#aG"/><use transform="matrix(0.06172839506172839,0,0,0.06172839506172839,43.20987654320987,0)" xlink:href="#aP"/><use transform="matrix(0.06172839506172839,0,0,0.06172839506172839,49.382716049382715,0)" xlink:href="#aL"/><use transform="matrix(0.06172839506172839,0,0,0.06172839506172839,61.72839506172839,0)" xlink:href="#aQ"/><use transform="matrix(0.06172839506172839,0,0,0.06172839506172839,72.8395061728395,0)" xlink:href="#aR"/><use transform="matrix(0.06172839506172839,0,0,0.06172839506172839,80.18518518518519,0)" xlink:href="#aS"/><use transform="matrix(0.06172839506172839,0,0,0.06172839506172839,92.53086419753087,0)" xlink:href="#aE"/><use transform="matrix(0.06172839506172839,0,0,0.06172839506172839,110.98765432098766,0)" xlink:href="#aS"/><use transform="matrix(0.06172839506172839,0,0,0.06172839506172839,123.33333333333334,0)" xlink:href="#aL"/><use transform="matrix(0.06172839506172839,0,0,0.06172839506172839,135.679012345679,0)" xlink:href="#aO"/></g><path fill="#333" d="M118-107v75H92v-75H18v-26h74v-75h26v75h74v26h-74" id="aT"/><use transform="matrix(0.06172839506172839,0,0,0.06172839506172839,0,0)" xlink:href="#aT" id="t"/><path fill="#333" d="M177-190C167-65 218 103 67 71c-23-6-38-20-44-43l32-5c15 47 100 32 89-28v-30C133-14 115 1 83 1 29 1 15-40 15-95c0-56 16-97 71-98 29-1 48 16 59 35 1-10 0-23 2-32h30zM94-22c36 0 50-32 50-73 0-42-14-75-50-75-39 0-46 34-46 75s6 73 46 73" id="aU"/><g id="u"><use transform="matrix(0.06172839506172839,0,0,0.06172839506172839,0,0)" xlink:href="#aQ"/><use transform="matrix(0.06172839506172839,0,0,0.06172839506172839,11.11111111111111,0)" xlink:href="#aG"/><use transform="matrix(0.06172839506172839,0,0,0.06172839506172839,23.45679012345679,0)" xlink:href="#aF"/><use transform="matrix(0.06172839506172839,0,0,0.06172839506172839,35.80246913580247,0)" xlink:href="#aJ"/><use transform="matrix(0.06172839506172839,0,0,0.06172839506172839,40.67901234567901,0)" xlink:href="#aU"/><use transform="matrix(0.06172839506172839,0,0,0.06172839506172839,53.02469135802469,0)" xlink:href="#aG"/><use transform="matrix(0.06172839506172839,0,0,0.06172839506172839,65.37037037037037,0)" xlink:href="#aK"/><use transform="matrix(0.06172839506172839,0,0,0.06172839506172839,71.5432098765432,0)" xlink:href="#aL"/><use transform="matrix(0.06172839506172839,0,0,0.06172839506172839,83.88888888888889,0)" xlink:href="#aM"/><use transform="matrix(0.06172839506172839,0,0,0.06172839506172839,96.23456790123457,0)" xlink:href="#aE"/></g><path fill="#333" d="M24 0v-261h32V0H24" id="aV"/><path fill="#333" d="M101-234c-31-9-42 10-38 44h38v23H63V0H32v-167H5v-23h27c-7-52 17-82 69-68v24" id="aW"/><g id="v"><use transform="matrix(0.06172839506172839,0,0,0.06172839506172839,0,0)" xlink:href="#aQ"/><use transform="matrix(0.06172839506172839,0,0,0.06172839506172839,11.11111111111111,0)" xlink:href="#aV"/><use transform="matrix(0.06172839506172839,0,0,0.06172839506172839,15.987654320987653,0)" xlink:href="#aD"/><use transform="matrix(0.06172839506172839,0,0,0.06172839506172839,28.333333333333332,0)" xlink:href="#aH"/><use transform="matrix(0.06172839506172839,0,0,0.06172839506172839,39.44444444444444,0)" xlink:href="#aH"/><use transform="matrix(0.06172839506172839,0,0,0.06172839506172839,50.55555555555556,0)" xlink:href="#aJ"/><use transform="matrix(0.06172839506172839,0,0,0.06172839506172839,55.4320987654321,0)" xlink:href="#aW"/><use transform="matrix(0.06172839506172839,0,0,0.06172839506172839,61.604938271604944,0)" xlink:href="#aJ"/><use transform="matrix(0.06172839506172839,0,0,0.06172839506172839,66.48148148148148,0)" xlink:href="#aQ"/><use transform="matrix(0.06172839506172839,0,0,0.06172839506172839,77.5925925925926,0)" xlink:href="#aD"/><use transform="matrix(0.06172839506172839,0,0,0.06172839506172839,89.93827160493828,0)" xlink:href="#aQ"/><use transform="matrix(0.06172839506172839,0,0,0.06172839506172839,101.0493827160494,0)" xlink:href="#aD"/><use transform="matrix(0.06172839506172839,0,0,0.06172839506172839,113.39506172839508,0)" xlink:href="#aG"/><use transform="matrix(0.06172839506172839,0,0,0.06172839506172839,125.74074074074076,0)" xlink:href="#aK"/><use transform="matrix(0.06172839506172839,0,0,0.06172839506172839,131.9135802469136,0)" xlink:href="#aH"/><use transform="matrix(0.06172839506172839,0,0,0.06172839506172839,143.0246913580247,0)" xlink:href="#aO"/><use transform="matrix(0.06172839506172839,0,0,0.06172839506172839,149.19753086419755,0)" xlink:href="#aR"/><use transform="matrix(0.06172839506172839,0,0,0.06172839506172839,156.54320987654322,0)" xlink:href="#aJ"/><use transform="matrix(0.06172839506172839,0,0,0.06172839506172839,161.41975308641975,0)" xlink:href="#aL"/><use transform="matrix(0.06172839506172839,0,0,0.06172839506172839,173.76543209876542,0)" xlink:href="#aU"/></g><g id="w"><use transform="matrix(0.06172839506172839,0,0,0.06172839506172839,0,0)" xlink:href="#aF"/><use transform="matrix(0.06172839506172839,0,0,0.06172839506172839,12.345679012345679,0)" xlink:href="#aS"/><use transform="matrix(0.06172839506172839,0,0,0.06172839506172839,24.691358024691358,0)" xlink:href="#aH"/><use transform="matrix(0.06172839506172839,0,0,0.06172839506172839,35.80246913580247,0)" xlink:href="#aQ"/><use transform="matrix(0.06172839506172839,0,0,0.06172839506172839,46.91358024691358,0)" xlink:href="#aR"/><use transform="matrix(0.06172839506172839,0,0,0.06172839506172839,54.25925925925926,0)" xlink:href="#aJ"/><use transform="matrix(0.06172839506172839,0,0,0.06172839506172839,59.135802469135804,0)" xlink:href="#aQ"/><use transform="matrix(0.06172839506172839,0,0,0.06172839506172839,70.24691358024691,0)" xlink:href="#aD"/><use transform="matrix(0.06172839506172839,0,0,0.06172839506172839,82.5925925925926,0)" xlink:href="#aG"/><use transform="matrix(0.06172839506172839,0,0,0.06172839506172839,94.93827160493828,0)" xlink:href="#aK"/><use transform="matrix(0.06172839506172839,0,0,0.06172839506172839,101.11111111111111,0)" xlink:href="#aH"/><use transform="matrix(0.06172839506172839,0,0,0.06172839506172839,112.22222222222223,0)" xlink:href="#aO"/><use transform="matrix(0.06172839506172839,0,0,0.06172839506172839,118.39506172839506,0)" xlink:href="#aR"/><use transform="matrix(0.06172839506172839,0,0,0.06172839506172839,125.74074074074075,0)" xlink:href="#aJ"/><use transform="matrix(0.06172839506172839,0,0,0.06172839506172839,130.6172839506173,0)" xlink:href="#aL"/><use transform="matrix(0.06172839506172839,0,0,0.06172839506172839,142.96296296296296,0)" xlink:href="#aU"/></g><g id="x"><use transform="matrix(0.06172839506172839,0,0,0.06172839506172839,0,0)" xlink:href="#aH"/><use transform="matrix(0.06172839506172839,0,0,0.06172839506172839,11.11111111111111,0)" xlink:href="#aO"/><use transform="matrix(0.06172839506172839,0,0,0.06172839506172839,17.28395061728395,0)" xlink:href="#aD"/><use transform="matrix(0.06172839506172839,0,0,0.06172839506172839,29.629629629629626,0)" xlink:href="#aO"/><use transform="matrix(0.06172839506172839,0,0,0.06172839506172839,35.80246913580247,0)" xlink:href="#aM"/><use transform="matrix(0.06172839506172839,0,0,0.06172839506172839,48.148148148148145,0)" xlink:href="#aH"/><use transform="matrix(0.06172839506172839,0,0,0.06172839506172839,59.25925925925925,0)" xlink:href="#aK"/><use transform="matrix(0.06172839506172839,0,0,0.06172839506172839,65.43209876543209,0)" xlink:href="#aH"/><use transform="matrix(0.06172839506172839,0,0,0.06172839506172839,76.5432098765432,0)" xlink:href="#aO"/><use transform="matrix(0.06172839506172839,0,0,0.06172839506172839,82.71604938271604,0)" xlink:href="#aR"/><use transform="matrix(0.06172839506172839,0,0,0.06172839506172839,90.06172839506172,0)" xlink:href="#aJ"/><use transform="matrix(0.06172839506172839,0,0,0.06172839506172839,94.93827160493827,0)" xlink:href="#aL"/><use transform="matrix(0.06172839506172839,0,0,0.06172839506172839,107.28395061728395,0)" xlink:href="#aU"/></g><path fill="#333" d="M87 75C49 33 22-17 22-94c0-76 28-126 65-167h31c-38 41-64 92-64 168S80 34 118 75H87" id="aX"/><path fill="#333" d="M33-261c38 41 65 92 65 168S71 34 33 75H2C39 34 66-17 66-93S39-220 2-261h31" id="aY"/><g id="y"><use transform="matrix(0.06172839506172839,0,0,0.06172839506172839,0,0)" xlink:href="#aR"/><use transform="matrix(0.06172839506172839,0,0,0.06172839506172839,7.345679012345679,0)" xlink:href="#aS"/><use transform="matrix(0.06172839506172839,0,0,0.06172839506172839,19.691358024691358,0)" xlink:href="#aO"/><use transform="matrix(0.06172839506172839,0,0,0.06172839506172839,25.864197530864196,0)" xlink:href="#aG"/><use transform="matrix(0.06172839506172839,0,0,0.06172839506172839,38.20987654320987,0)" xlink:href="#aR"/><use transform="matrix(0.06172839506172839,0,0,0.06172839506172839,45.55555555555555,0)" xlink:href="#aL"/><use transform="matrix(0.06172839506172839,0,0,0.06172839506172839,57.90123456790123,0)" xlink:href="#aD"/><use transform="matrix(0.06172839506172839,0,0,0.06172839506172839,70.24691358024691,0)" xlink:href="#aR"/><use transform="matrix(0.06172839506172839,0,0,0.06172839506172839,77.5925925925926,0)" xlink:href="#aB"/><use transform="matrix(0.06172839506172839,0,0,0.06172839506172839,93.58024691358025,0)" xlink:href="#aG"/><use transform="matrix(0.06172839506172839,0,0,0.06172839506172839,105.92592592592594,0)" xlink:href="#aF"/><use transform="matrix(0.06172839506172839,0,0,0.06172839506172839,118.27160493827162,0)" xlink:href="#aJ"/><use transform="matrix(0.06172839506172839,0,0,0.06172839506172839,123.14814814814817,0)" xlink:href="#aU"/><use transform="matrix(0.06172839506172839,0,0,0.06172839506172839,135.49382716049385,0)" xlink:href="#aG"/><use transform="matrix(0.06172839506172839,0,0,0.06172839506172839,147.83950617283952,0)" xlink:href="#aX"/><use transform="matrix(0.06172839506172839,0,0,0.06172839506172839,155.1851851851852,0)" xlink:href="#aY"/><use transform="matrix(0.06172839506172839,0,0,0.06172839506172839,162.53086419753086,0)" xlink:href="#aK"/><use transform="matrix(0.06172839506172839,0,0,0.06172839506172839,168.7037037037037,0)" xlink:href="#aL"/><use transform="matrix(0.06172839506172839,0,0,0.06172839506172839,181.04938271604937,0)" xlink:href="#aM"/><use transform="matrix(0.06172839506172839,0,0,0.06172839506172839,193.39506172839504,0)" xlink:href="#aE"/></g><g id="z"><use transform="matrix(0.06172839506172839,0,0,0.06172839506172839,0,0)" xlink:href="#aJ"/><use transform="matrix(0.06172839506172839,0,0,0.06172839506172839,4.876543209876543,0)" xlink:href="#aL"/><use transform="matrix(0.06172839506172839,0,0,0.06172839506172839,17.22222222222222,0)" xlink:href="#aH"/><use transform="matrix(0.06172839506172839,0,0,0.06172839506172839,28.333333333333332,0)" xlink:href="#aS"/><use transform="matrix(0.06172839506172839,0,0,0.06172839506172839,40.67901234567901,0)" xlink:href="#aR"/><use transform="matrix(0.06172839506172839,0,0,0.06172839506172839,48.02469135802469,0)" xlink:href="#aJ"/><use transform="matrix(0.06172839506172839,0,0,0.06172839506172839,52.901234567901234,0)" xlink:href="#aR"/><use transform="matrix(0.06172839506172839,0,0,0.06172839506172839,60.24691358024691,0)" xlink:href="#aB"/><use transform="matrix(0.06172839506172839,0,0,0.06172839506172839,76.23456790123457,0)" xlink:href="#aC"/><use transform="matrix(0.06172839506172839,0,0,0.06172839506172839,88.58024691358025,0)" xlink:href="#aD"/><use transform="matrix(0.06172839506172839,0,0,0.06172839506172839,100.92592592592594,0)" xlink:href="#aE"/><use transform="matrix(0.06172839506172839,0,0,0.06172839506172839,119.38271604938272,0)" xlink:href="#aD"/><use transform="matrix(0.06172839506172839,0,0,0.06172839506172839,131.7283950617284,0)" xlink:href="#aF"/><use transform="matrix(0.06172839506172839,0,0,0.06172839506172839,144.07407407407408,0)" xlink:href="#aG"/><use transform="matrix(0.06172839506172839,0,0,0.06172839506172839,156.41975308641975,0)" xlink:href="#aX"/><use transform="matrix(0.06172839506172839,0,0,0.06172839506172839,163.76543209876542,0)" xlink:href="#aY"/></g><g id="A"><use transform="matrix(0.06172839506172839,0,0,0.06172839506172839,0,0)" xlink:href="#aQ"/><use transform="matrix(0.06172839506172839,0,0,0.06172839506172839,11.11111111111111,0)" xlink:href="#aD"/><use transform="matrix(0.06172839506172839,0,0,0.06172839506172839,23.45679012345679,0)" xlink:href="#aR"/><use transform="matrix(0.06172839506172839,0,0,0.06172839506172839,30.80246913580247,0)" xlink:href="#aR"/><use transform="matrix(0.06172839506172839,0,0,0.06172839506172839,38.148148148148145,0)" xlink:href="#aS"/><use transform="matrix(0.06172839506172839,0,0,0.06172839506172839,50.49382716049382,0)" xlink:href="#aU"/><use transform="matrix(0.06172839506172839,0,0,0.06172839506172839,62.8395061728395,0)" xlink:href="#aD"/><use transform="matrix(0.06172839506172839,0,0,0.06172839506172839,75.18518518518518,0)" xlink:href="#aR"/><use transform="matrix(0.06172839506172839,0,0,0.06172839506172839,82.53086419753086,0)" xlink:href="#aB"/><use transform="matrix(0.06172839506172839,0,0,0.06172839506172839,98.51851851851852,0)" xlink:href="#aC"/><use transform="matrix(0.06172839506172839,0,0,0.06172839506172839,110.8641975308642,0)" xlink:href="#aD"/><use transform="matrix(0.06172839506172839,0,0,0.06172839506172839,123.20987654320989,0)" xlink:href="#aE"/><use transform="matrix(0.06172839506172839,0,0,0.06172839506172839,141.66666666666669,0)" xlink:href="#aD"/><use transform="matrix(0.06172839506172839,0,0,0.06172839506172839,154.01234567901236,0)" xlink:href="#aF"/><use transform="matrix(0.06172839506172839,0,0,0.06172839506172839,166.35802469135803,0)" xlink:href="#aG"/><use transform="matrix(0.06172839506172839,0,0,0.06172839506172839,178.7037037037037,0)" xlink:href="#aX"/><use transform="matrix(0.06172839506172839,0,0,0.06172839506172839,186.04938271604937,0)" xlink:href="#aY"/></g><g id="B"><use transform="matrix(0.06172839506172839,0,0,0.06172839506172839,0,0)" xlink:href="#aS"/><use transform="matrix(0.06172839506172839,0,0,0.06172839506172839,12.345679012345679,0)" xlink:href="#aF"/><use transform="matrix(0.06172839506172839,0,0,0.06172839506172839,24.691358024691358,0)" xlink:href="#aJ"/><use transform="matrix(0.06172839506172839,0,0,0.06172839506172839,29.5679012345679,0)" xlink:href="#aO"/><use transform="matrix(0.06172839506172839,0,0,0.06172839506172839,35.74074074074074,0)" xlink:href="#aD"/><use transform="matrix(0.06172839506172839,0,0,0.06172839506172839,48.08641975308642,0)" xlink:href="#aR"/><use transform="matrix(0.06172839506172839,0,0,0.06172839506172839,55.432098765432094,0)" xlink:href="#aB"/><use transform="matrix(0.06172839506172839,0,0,0.06172839506172839,71.41975308641975,0)" xlink:href="#aV"/><use transform="matrix(0.06172839506172839,0,0,0.06172839506172839,76.29629629629629,0)" xlink:href="#aD"/><use transform="matrix(0.06172839506172839,0,0,0.06172839506172839,88.64197530864197,0)" xlink:href="#aH"/><use transform="matrix(0.06172839506172839,0,0,0.06172839506172839,99.75308641975309,0)" xlink:href="#aH"/><use transform="matrix(0.06172839506172839,0,0,0.06172839506172839,110.8641975308642,0)" xlink:href="#aJ"/><use transform="matrix(0.06172839506172839,0,0,0.06172839506172839,115.74074074074075,0)" xlink:href="#aW"/><use transform="matrix(0.06172839506172839,0,0,0.06172839506172839,121.91358024691358,0)" xlink:href="#aJ"/><use transform="matrix(0.06172839506172839,0,0,0.06172839506172839,126.79012345679011,0)" xlink:href="#aQ"/><use transform="matrix(0.06172839506172839,0,0,0.06172839506172839,137.90123456790124,0)" xlink:href="#aD"/><use transform="matrix(0.06172839506172839,0,0,0.06172839506172839,150.2469135802469,0)" xlink:href="#aQ"/><use transform="matrix(0.06172839506172839,0,0,0.06172839506172839,161.35802469135803,0)" xlink:href="#aD"/><use transform="matrix(0.06172839506172839,0,0,0.06172839506172839,173.7037037037037,0)" xlink:href="#aG"/><use transform="matrix(0.06172839506172839,0,0,0.06172839506172839,186.04938271604937,0)" xlink:href="#aX"/><use transform="matrix(0.06172839506172839,0,0,0.06172839506172839,193.39506172839504,0)" xlink:href="#aY"/></g><path fill="#333" d="M9 0v-24l116-142H16v-24h144v24L44-24h123V0H9" id="aZ"/><path fill="#333" d="M185-189c-5-48-123-54-124 2 14 75 158 14 163 119 3 78-121 87-175 55-17-10-28-26-33-46l33-7c5 56 141 63 141-1 0-78-155-14-162-118-5-82 145-84 179-34 5 7 8 16 11 25" id="ba"/><g id="C"><use transform="matrix(0.06172839506172839,0,0,0.06172839506172839,0,0)" xlink:href="#aD"/><use transform="matrix(0.06172839506172839,0,0,0.06172839506172839,12.345679012345679,0)" xlink:href="#aO"/><use transform="matrix(0.06172839506172839,0,0,0.06172839506172839,18.51851851851852,0)" xlink:href="#aM"/><use transform="matrix(0.06172839506172839,0,0,0.06172839506172839,30.864197530864196,0)" xlink:href="#aD"/><use transform="matrix(0.06172839506172839,0,0,0.06172839506172839,43.20987654320987,0)" xlink:href="#aV"/><use transform="matrix(0.06172839506172839,0,0,0.06172839506172839,48.08641975308642,0)" xlink:href="#aJ"/><use transform="matrix(0.06172839506172839,0,0,0.06172839506172839,52.96296296296296,0)" xlink:href="#aZ"/><use transform="matrix(0.06172839506172839,0,0,0.06172839506172839,64.07407407407408,0)" xlink:href="#aD"/><use transform="matrix(0.06172839506172839,0,0,0.06172839506172839,76.41975308641976,0)" xlink:href="#aR"/><use transform="matrix(0.06172839506172839,0,0,0.06172839506172839,83.76543209876544,0)" xlink:href="#ba"/><use transform="matrix(0.06172839506172839,0,0,0.06172839506172839,98.58024691358025,0)" xlink:href="#aO"/><use transform="matrix(0.06172839506172839,0,0,0.06172839506172839,104.75308641975309,0)" xlink:href="#aD"/><use transform="matrix(0.06172839506172839,0,0,0.06172839506172839,117.09876543209877,0)" xlink:href="#aO"/><use transform="matrix(0.06172839506172839,0,0,0.06172839506172839,123.27160493827161,0)" xlink:href="#aM"/><use transform="matrix(0.06172839506172839,0,0,0.06172839506172839,135.6172839506173,0)" xlink:href="#aH"/><use transform="matrix(0.06172839506172839,0,0,0.06172839506172839,146.7283950617284,0)" xlink:href="#aX"/><use transform="matrix(0.06172839506172839,0,0,0.06172839506172839,154.07407407407408,0)" xlink:href="#aY"/></g><path fill="#333" d="M232-93c-1 65-40 97-104 97C67 4 28-28 28-90v-158h33c8 89-33 224 67 224 102 0 64-133 71-224h33v155" id="bb"/><path fill="#333" d="M141-36C126-15 110 5 73 4 37 3 15-17 15-53c-1-64 63-63 125-63 3-35-9-54-41-54-24 1-41 7-42 31l-33-3c5-37 33-52 76-52 45 0 72 20 72 64v82c-1 20 7 32 28 27v20c-31 9-61-2-59-35zM48-53c0 20 12 33 32 33 41-3 63-29 60-74-43 2-92-5-92 41zm25-158c8-23 27-35 38-54h36v5l-58 49H73" id="bc"/><g id="D"><use transform="matrix(0.06172839506172839,0,0,0.06172839506172839,0,0)" xlink:href="#bb"/><use transform="matrix(0.06172839506172839,0,0,0.06172839506172839,15.987654320987653,0)" xlink:href="#aH"/><use transform="matrix(0.06172839506172839,0,0,0.06172839506172839,27.098765432098766,0)" xlink:href="#aM"/><use transform="matrix(0.06172839506172839,0,0,0.06172839506172839,39.44444444444444,0)" xlink:href="#bc"/><use transform="matrix(0.06172839506172839,0,0,0.06172839506172839,51.79012345679012,0)" xlink:href="#aR"/><use transform="matrix(0.06172839506172839,0,0,0.06172839506172839,59.1358024691358,0)" xlink:href="#aJ"/><use transform="matrix(0.06172839506172839,0,0,0.06172839506172839,64.01234567901234,0)" xlink:href="#aG"/></g><g id="E"><use transform="matrix(0.06172839506172839,0,0,0.06172839506172839,0,0)" xlink:href="#aL"/><use transform="matrix(0.06172839506172839,0,0,0.06172839506172839,12.345679012345679,0)" xlink:href="#aG"/><use transform="matrix(0.06172839506172839,0,0,0.06172839506172839,24.691358024691358,0)" xlink:href="#aE"/><use transform="matrix(0.06172839506172839,0,0,0.06172839506172839,43.148148148148145,0)" xlink:href="#aS"/><use transform="matrix(0.06172839506172839,0,0,0.06172839506172839,55.49382716049382,0)" xlink:href="#aK"/><use transform="matrix(0.06172839506172839,0,0,0.06172839506172839,61.666666666666664,0)" xlink:href="#aH"/><use transform="matrix(0.06172839506172839,0,0,0.06172839506172839,72.77777777777777,0)" xlink:href="#aO"/><use transform="matrix(0.06172839506172839,0,0,0.06172839506172839,78.9506172839506,0)" xlink:href="#aR"/><use transform="matrix(0.06172839506172839,0,0,0.06172839506172839,86.29629629629629,0)" xlink:href="#aJ"/><use transform="matrix(0.06172839506172839,0,0,0.06172839506172839,91.17283950617283,0)" xlink:href="#aL"/><use transform="matrix(0.06172839506172839,0,0,0.06172839506172839,103.51851851851852,0)" xlink:href="#aU"/></g><g id="F"><use transform="matrix(0.06172839506172839,0,0,0.06172839506172839,0,0)" xlink:href="#aV"/><use transform="matrix(0.06172839506172839,0,0,0.06172839506172839,4.876543209876543,0)" xlink:href="#aG"/><use transform="matrix(0.06172839506172839,0,0,0.06172839506172839,17.22222222222222,0)" xlink:href="#aU"/><use transform="matrix(0.06172839506172839,0,0,0.06172839506172839,29.5679012345679,0)" xlink:href="#aJ"/><use transform="matrix(0.06172839506172839,0,0,0.06172839506172839,34.44444444444444,0)" xlink:href="#aL"/><use transform="matrix(0.06172839506172839,0,0,0.06172839506172839,46.79012345679012,0)" xlink:href="#aK"/><use transform="matrix(0.06172839506172839,0,0,0.06172839506172839,52.96296296296296,0)" xlink:href="#aH"/><use transform="matrix(0.06172839506172839,0,0,0.06172839506172839,64.07407407407408,0)" xlink:href="#aO"/><use transform="matrix(0.06172839506172839,0,0,0.06172839506172839,70.24691358024691,0)" xlink:href="#aR"/><use transform="matrix(0.06172839506172839,0,0,0.06172839506172839,77.5925925925926,0)" xlink:href="#aJ"/><use transform="matrix(0.06172839506172839,0,0,0.06172839506172839,82.46913580246914,0)" xlink:href="#aL"/><use transform="matrix(0.06172839506172839,0,0,0.06172839506172839,94.81481481481482,0)" xlink:href="#aU"/></g><g id="G"><use transform="matrix(0.06172839506172839,0,0,0.06172839506172839,0,0)" xlink:href="#aH"/><use transform="matrix(0.06172839506172839,0,0,0.06172839506172839,11.11111111111111,0)" xlink:href="#aS"/><use transform="matrix(0.06172839506172839,0,0,0.06172839506172839,23.45679012345679,0)" xlink:href="#aL"/><use transform="matrix(0.06172839506172839,0,0,0.06172839506172839,35.80246913580247,0)" xlink:href="#aC"/><use transform="matrix(0.06172839506172839,0,0,0.06172839506172839,48.148148148148145,0)" xlink:href="#aD"/><use transform="matrix(0.06172839506172839,0,0,0.06172839506172839,60.49382716049382,0)" xlink:href="#aK"/><use transform="matrix(0.06172839506172839,0,0,0.06172839506172839,66.66666666666666,0)" xlink:href="#aH"/><use transform="matrix(0.06172839506172839,0,0,0.06172839506172839,77.77777777777777,0)" xlink:href="#aO"/><use transform="matrix(0.06172839506172839,0,0,0.06172839506172839,83.9506172839506,0)" xlink:href="#aR"/><use transform="matrix(0.06172839506172839,0,0,0.06172839506172839,91.29629629629629,0)" xlink:href="#aJ"/><use transform="matrix(0.06172839506172839,0,0,0.06172839506172839,96.17283950617283,0)" xlink:href="#aL"/><use transform="matrix(0.06172839506172839,0,0,0.06172839506172839,108.51851851851852,0)" xlink:href="#aU"/></g><path fill="#333" d="M190 0L58-211 59 0H30v-248h39L202-35l-2-213h31V0h-41" id="bd"/><g id="H"><use transform="matrix(0.06172839506172839,0,0,0.06172839506172839,0,0)" xlink:href="#aJ"/><use transform="matrix(0.06172839506172839,0,0,0.06172839506172839,4.876543209876543,0)" xlink:href="#aL"/><use transform="matrix(0.06172839506172839,0,0,0.06172839506172839,17.22222222222222,0)" xlink:href="#aH"/><use transform="matrix(0.06172839506172839,0,0,0.06172839506172839,28.333333333333332,0)" xlink:href="#aS"/><use transform="matrix(0.06172839506172839,0,0,0.06172839506172839,40.67901234567901,0)" xlink:href="#aR"/><use transform="matrix(0.06172839506172839,0,0,0.06172839506172839,48.02469135802469,0)" xlink:href="#aJ"/><use transform="matrix(0.06172839506172839,0,0,0.06172839506172839,52.901234567901234,0)" xlink:href="#aR"/><use transform="matrix(0.06172839506172839,0,0,0.06172839506172839,60.24691358024691,0)" xlink:href="#bd"/><use transform="matrix(0.06172839506172839,0,0,0.06172839506172839,76.23456790123457,0)" xlink:href="#aG"/><use transform="matrix(0.06172839506172839,0,0,0.06172839506172839,88.58024691358025,0)" xlink:href="#aE"/><use transform="matrix(0.06172839506172839,0,0,0.06172839506172839,107.03703703703704,0)" xlink:href="#aS"/><use transform="matrix(0.06172839506172839,0,0,0.06172839506172839,119.38271604938272,0)" xlink:href="#aX"/><use transform="matrix(0.06172839506172839,0,0,0.06172839506172839,126.72839506172842,0)" xlink:href="#aY"/></g><path fill="#333" d="M30 0v-248h33v221h125V0H30" id="be"/><g id="I"><use transform="matrix(0.06172839506172839,0,0,0.06172839506172839,0,0)" xlink:href="#aJ"/><use transform="matrix(0.06172839506172839,0,0,0.06172839506172839,4.876543209876543,0)" xlink:href="#aL"/><use transform="matrix(0.06172839506172839,0,0,0.06172839506172839,17.22222222222222,0)" xlink:href="#aH"/><use transform="matrix(0.06172839506172839,0,0,0.06172839506172839,28.333333333333332,0)" xlink:href="#aS"/><use transform="matrix(0.06172839506172839,0,0,0.06172839506172839,40.67901234567901,0)" xlink:href="#aR"/><use transform="matrix(0.06172839506172839,0,0,0.06172839506172839,48.02469135802469,0)" xlink:href="#aJ"/><use transform="matrix(0.06172839506172839,0,0,0.06172839506172839,52.901234567901234,0)" xlink:href="#aR"/><use transform="matrix(0.06172839506172839,0,0,0.06172839506172839,60.24691358024691,0)" xlink:href="#be"/><use transform="matrix(0.06172839506172839,0,0,0.06172839506172839,72.5925925925926,0)" xlink:href="#aG"/><use transform="matrix(0.06172839506172839,0,0,0.06172839506172839,84.93827160493828,0)" xlink:href="#aU"/><use transform="matrix(0.06172839506172839,0,0,0.06172839506172839,97.28395061728396,0)" xlink:href="#aJ"/><use transform="matrix(0.06172839506172839,0,0,0.06172839506172839,102.16049382716051,0)" xlink:href="#aL"/><use transform="matrix(0.06172839506172839,0,0,0.06172839506172839,114.50617283950619,0)" xlink:href="#aX"/><use transform="matrix(0.06172839506172839,0,0,0.06172839506172839,121.85185185185188,0)" xlink:href="#aY"/></g><g id="J"><use transform="matrix(0.06172839506172839,0,0,0.06172839506172839,0,0)" xlink:href="#aJ"/><use transform="matrix(0.06172839506172839,0,0,0.06172839506172839,4.876543209876543,0)" xlink:href="#aL"/><use transform="matrix(0.06172839506172839,0,0,0.06172839506172839,17.22222222222222,0)" xlink:href="#aH"/><use transform="matrix(0.06172839506172839,0,0,0.06172839506172839,28.333333333333332,0)" xlink:href="#aS"/><use transform="matrix(0.06172839506172839,0,0,0.06172839506172839,40.67901234567901,0)" xlink:href="#aR"/><use transform="matrix(0.06172839506172839,0,0,0.06172839506172839,48.02469135802469,0)" xlink:href="#aJ"/><use transform="matrix(0.06172839506172839,0,0,0.06172839506172839,52.901234567901234,0)" xlink:href="#aR"/><use transform="matrix(0.06172839506172839,0,0,0.06172839506172839,60.24691358024691,0)" xlink:href="#ba"/><use transform="matrix(0.06172839506172839,0,0,0.06172839506172839,75.06172839506172,0)" xlink:href="#aS"/><use transform="matrix(0.06172839506172839,0,0,0.06172839506172839,87.4074074074074,0)" xlink:href="#aL"/><use transform="matrix(0.06172839506172839,0,0,0.06172839506172839,99.75308641975309,0)" xlink:href="#aC"/><use transform="matrix(0.06172839506172839,0,0,0.06172839506172839,112.09876543209877,0)" xlink:href="#aD"/><use transform="matrix(0.06172839506172839,0,0,0.06172839506172839,124.44444444444446,0)" xlink:href="#aX"/><use transform="matrix(0.06172839506172839,0,0,0.06172839506172839,131.79012345679013,0)" xlink:href="#aY"/></g><path fill="#333" d="M115-194c55 1 70 41 70 98S169 2 115 4C84 4 66-9 55-30l1 105H24l-1-265h31l2 30c10-21 28-34 59-34zm-8 174c40 0 45-34 45-75s-6-73-45-74c-42 0-51 32-51 76 0 43 10 73 51 73" id="bf"/><path fill="#333" d="M205 0l-28-72H64L36 0H1l101-248h38L239 0h-34zm-38-99l-47-123c-12 45-31 82-46 123h93" id="bg"/><g id="K"><use transform="matrix(0.06172839506172839,0,0,0.06172839506172839,0,0)" xlink:href="#bf"/><use transform="matrix(0.06172839506172839,0,0,0.06172839506172839,12.345679012345679,0)" xlink:href="#aS"/><use transform="matrix(0.06172839506172839,0,0,0.06172839506172839,24.691358024691358,0)" xlink:href="#aR"/><use transform="matrix(0.06172839506172839,0,0,0.06172839506172839,32.03703703703704,0)" xlink:href="#aE"/><use transform="matrix(0.06172839506172839,0,0,0.06172839506172839,50.49382716049382,0)" xlink:href="#aJ"/><use transform="matrix(0.06172839506172839,0,0,0.06172839506172839,55.37037037037037,0)" xlink:href="#aO"/><use transform="matrix(0.06172839506172839,0,0,0.06172839506172839,61.54320987654321,0)" xlink:href="#aJ"/><use transform="matrix(0.06172839506172839,0,0,0.06172839506172839,66.41975308641975,0)" xlink:href="#aR"/><use transform="matrix(0.06172839506172839,0,0,0.06172839506172839,73.76543209876543,0)" xlink:href="#bg"/><use transform="matrix(0.06172839506172839,0,0,0.06172839506172839,88.58024691358024,0)" xlink:href="#aQ"/><use transform="matrix(0.06172839506172839,0,0,0.06172839506172839,99.69135802469135,0)" xlink:href="#aS"/><use transform="matrix(0.06172839506172839,0,0,0.06172839506172839,112.03703703703704,0)" xlink:href="#aH"/><use transform="matrix(0.06172839506172839,0,0,0.06172839506172839,123.14814814814815,0)" xlink:href="#aH"/><use transform="matrix(0.06172839506172839,0,0,0.06172839506172839,134.25925925925927,0)" xlink:href="#aG"/><use transform="matrix(0.06172839506172839,0,0,0.06172839506172839,146.60493827160494,0)" xlink:href="#aX"/><use transform="matrix(0.06172839506172839,0,0,0.06172839506172839,153.9506172839506,0)" xlink:href="#aY"/></g><g id="L"><use transform="matrix(0.06172839506172839,0,0,0.06172839506172839,0,0)" xlink:href="#aE"/><use transform="matrix(0.06172839506172839,0,0,0.06172839506172839,18.456790123456788,0)" xlink:href="#aG"/><use transform="matrix(0.06172839506172839,0,0,0.06172839506172839,30.80246913580247,0)" xlink:href="#aF"/><use transform="matrix(0.06172839506172839,0,0,0.06172839506172839,43.148148148148145,0)" xlink:href="#aJ"/><use transform="matrix(0.06172839506172839,0,0,0.06172839506172839,48.02469135802469,0)" xlink:href="#aW"/><use transform="matrix(0.06172839506172839,0,0,0.06172839506172839,54.19753086419753,0)" xlink:href="#aJ"/><use transform="matrix(0.06172839506172839,0,0,0.06172839506172839,59.074074074074076,0)" xlink:href="#aQ"/><use transform="matrix(0.06172839506172839,0,0,0.06172839506172839,70.18518518518519,0)" xlink:href="#aD"/><use transform="matrix(0.06172839506172839,0,0,0.06172839506172839,82.53086419753087,0)" xlink:href="#aR"/><use transform="matrix(0.06172839506172839,0,0,0.06172839506172839,89.87654320987656,0)" xlink:href="#bd"/><use transform="matrix(0.06172839506172839,0,0,0.06172839506172839,105.86419753086422,0)" xlink:href="#aG"/><use transform="matrix(0.06172839506172839,0,0,0.06172839506172839,118.2098765432099,0)" xlink:href="#aE"/><use transform="matrix(0.06172839506172839,0,0,0.06172839506172839,136.66666666666669,0)" xlink:href="#aS"/><use transform="matrix(0.06172839506172839,0,0,0.06172839506172839,149.01234567901236,0)" xlink:href="#aX"/><use transform="matrix(0.06172839506172839,0,0,0.06172839506172839,156.35802469135803,0)" xlink:href="#aY"/></g><use transform="matrix(0.06172839506172839,0,0,0.06172839506172839,0,0)" xlink:href="#aI" id="M"/><g id="N"><use transform="matrix(0.06172839506172839,0,0,0.06172839506172839,0,0)" xlink:href="#aE"/><use transform="matrix(0.06172839506172839,0,0,0.06172839506172839,18.456790123456788,0)" xlink:href="#aG"/><use transform="matrix(0.06172839506172839,0,0,0.06172839506172839,30.80246913580247,0)" xlink:href="#aF"/><use transform="matrix(0.06172839506172839,0,0,0.06172839506172839,43.148148148148145,0)" xlink:href="#aJ"/><use transform="matrix(0.06172839506172839,0,0,0.06172839506172839,48.02469135802469,0)" xlink:href="#aW"/><use transform="matrix(0.06172839506172839,0,0,0.06172839506172839,54.19753086419753,0)" xlink:href="#aJ"/><use transform="matrix(0.06172839506172839,0,0,0.06172839506172839,59.074074074074076,0)" xlink:href="#aQ"/><use transform="matrix(0.06172839506172839,0,0,0.06172839506172839,70.18518518518519,0)" xlink:href="#aD"/><use transform="matrix(0.06172839506172839,0,0,0.06172839506172839,82.53086419753087,0)" xlink:href="#aR"/><use transform="matrix(0.06172839506172839,0,0,0.06172839506172839,89.87654320987656,0)" xlink:href="#ba"/><use transform="matrix(0.06172839506172839,0,0,0.06172839506172839,104.69135802469137,0)" xlink:href="#aS"/><use transform="matrix(0.06172839506172839,0,0,0.06172839506172839,117.03703703703705,0)" xlink:href="#aL"/><use transform="matrix(0.06172839506172839,0,0,0.06172839506172839,129.38271604938274,0)" xlink:href="#aC"/><use transform="matrix(0.06172839506172839,0,0,0.06172839506172839,141.7283950617284,0)" xlink:href="#aD"/><use transform="matrix(0.06172839506172839,0,0,0.06172839506172839,154.07407407407408,0)" xlink:href="#aX"/><use transform="matrix(0.06172839506172839,0,0,0.06172839506172839,161.41975308641975,0)" xlink:href="#aY"/></g><path fill="#333" d="M135-194c53 0 70 44 70 98 0 56-19 98-73 100-31 1-45-17-59-34 3 33 2 69 2 105H25l-1-265h48c2 10 0 23 3 31 11-24 29-35 60-35zM114-30c33 0 39-31 40-66 0-38-9-64-40-64-56 0-55 130 0 130" id="bh"/><path fill="#333" d="M110-194c64 0 96 36 96 99 0 64-35 99-97 99-61 0-95-36-95-99 0-62 34-99 96-99zm-1 164c35 0 45-28 45-65 0-40-10-65-43-65-34 0-45 26-45 65 0 36 10 65 43 65" id="bi"/><path fill="#333" d="M137-138c1-29-70-34-71-4 15 46 118 7 119 86 1 83-164 76-172 9l43-7c4 19 20 25 44 25 33 8 57-30 24-41C81-84 22-81 20-136c-2-80 154-74 161-7" id="bj"/><path fill="#333" d="M85 4C-2 5 27-109 22-190h50c7 57-23 150 33 157 60-5 35-97 40-157h50l1 190h-47c-2-12 1-28-3-38-12 25-28 42-61 42" id="bk"/><path fill="#333" d="M25-224v-37h50v37H25zM25 0v-190h50V0H25" id="bl"/><g id="O"><use transform="matrix(0.04938271604938272,0,0,0.04938271604938272,0,0)" xlink:href="#bh"/><use transform="matrix(0.04938271604938272,0,0,0.04938271604938272,10.814814814814815,0)" xlink:href="#bi"/><use transform="matrix(0.04938271604938272,0,0,0.04938271604938272,21.62962962962963,0)" xlink:href="#bj"/><use transform="matrix(0.04938271604938272,0,0,0.04938271604938272,31.506172839506174,0)" xlink:href="#bj"/><use transform="matrix(0.04938271604938272,0,0,0.04938271604938272,41.38271604938272,0)" xlink:href="#bk"/><use transform="matrix(0.04938271604938272,0,0,0.04938271604938272,52.19753086419754,0)" xlink:href="#bl"/></g><path d="M101-251c68 0 85 55 85 127S166 4 100 4C33 4 14-52 14-124c0-73 17-127 87-127zm-1 229c47 0 54-49 54-102s-4-102-53-102c-51 0-55 48-55 102 0 53 5 102 54 102" id="bm"/><path d="M33 0v-38h34V0H33" id="bn"/><path d="M27 0v-27h64v-190l-56 39v-29l58-41h29v221h61V0H27" id="bo"/><g id="P"><use transform="matrix(0.05,0,0,0.05,0,0)" xlink:href="#bm"/><use transform="matrix(0.05,0,0,0.05,10,0)" xlink:href="#bn"/><use transform="matrix(0.05,0,0,0.05,15,0)" xlink:href="#bn"/><use transform="matrix(0.05,0,0,0.05,20,0)" xlink:href="#bo"/></g><path d="M80-196l47-18 7 23-49 13 32 44-20 13-27-46-27 45-21-12 33-44-49-13 8-23 47 19-2-53h23" id="bp"/><g id="Q"><use transform="matrix(0.05,0,0,0.05,0,0)" xlink:href="#bm"/><use transform="matrix(0.05,0,0,0.05,10,0)" xlink:href="#bn"/><use transform="matrix(0.05,0,0,0.05,15,0)" xlink:href="#bn"/><use transform="matrix(0.05,0,0,0.05,20,0)" xlink:href="#bp"/></g><g id="R"><use transform="matrix(0.06172839506172839,0,0,0.06172839506172839,0,0)" xlink:href="#bg"/><use transform="matrix(0.06172839506172839,0,0,0.06172839506172839,14.814814814814813,0)" xlink:href="#aF"/><use transform="matrix(0.06172839506172839,0,0,0.06172839506172839,27.160493827160494,0)" xlink:href="#aE"/><use transform="matrix(0.06172839506172839,0,0,0.06172839506172839,45.61728395061728,0)" xlink:href="#aJ"/><use transform="matrix(0.06172839506172839,0,0,0.06172839506172839,50.49382716049382,0)" xlink:href="#aL"/><use transform="matrix(0.06172839506172839,0,0,0.06172839506172839,62.8395061728395,0)" xlink:href="#aJ"/><use transform="matrix(0.06172839506172839,0,0,0.06172839506172839,67.71604938271604,0)" xlink:href="#aH"/><use transform="matrix(0.06172839506172839,0,0,0.06172839506172839,78.82716049382715,0)" xlink:href="#aO"/><use transform="matrix(0.06172839506172839,0,0,0.06172839506172839,84.99999999999999,0)" xlink:href="#aR"/><use transform="matrix(0.06172839506172839,0,0,0.06172839506172839,92.34567901234567,0)" xlink:href="#aD"/><use transform="matrix(0.06172839506172839,0,0,0.06172839506172839,104.69135802469135,0)" xlink:href="#aF"/><use transform="matrix(0.06172839506172839,0,0,0.06172839506172839,117.03703703703704,0)" xlink:href="#aG"/><use transform="matrix(0.06172839506172839,0,0,0.06172839506172839,129.3827160493827,0)" xlink:href="#aR"/></g><path fill="#333" d="M30-248c118-7 216 8 213 122C240-48 200 0 122 0H30v-248zM63-27c89 8 146-16 146-99s-60-101-146-95v194" id="bq"/><g id="S"><use transform="matrix(0.06172839506172839,0,0,0.06172839506172839,0,0)" xlink:href="#aS"/><use transform="matrix(0.06172839506172839,0,0,0.06172839506172839,12.345679012345679,0)" xlink:href="#aF"/><use transform="matrix(0.06172839506172839,0,0,0.06172839506172839,24.691358024691358,0)" xlink:href="#aJ"/><use transform="matrix(0.06172839506172839,0,0,0.06172839506172839,29.5679012345679,0)" xlink:href="#aO"/><use transform="matrix(0.06172839506172839,0,0,0.06172839506172839,35.74074074074074,0)" xlink:href="#aD"/><use transform="matrix(0.06172839506172839,0,0,0.06172839506172839,48.08641975308642,0)" xlink:href="#aR"/><use transform="matrix(0.06172839506172839,0,0,0.06172839506172839,55.432098765432094,0)" xlink:href="#bq"/><use transform="matrix(0.06172839506172839,0,0,0.06172839506172839,71.41975308641975,0)" xlink:href="#aS"/><use transform="matrix(0.06172839506172839,0,0,0.06172839506172839,83.76543209876543,0)" xlink:href="#aH"/><use transform="matrix(0.06172839506172839,0,0,0.06172839506172839,94.87654320987654,0)" xlink:href="#aQ"/><use transform="matrix(0.06172839506172839,0,0,0.06172839506172839,105.98765432098766,0)" xlink:href="#aR"/><use transform="matrix(0.06172839506172839,0,0,0.06172839506172839,113.33333333333334,0)" xlink:href="#aJ"/><use transform="matrix(0.06172839506172839,0,0,0.06172839506172839,118.20987654320989,0)" xlink:href="#aQ"/><use transform="matrix(0.06172839506172839,0,0,0.06172839506172839,129.320987654321,0)" xlink:href="#aD"/><use transform="matrix(0.06172839506172839,0,0,0.06172839506172839,141.66666666666666,0)" xlink:href="#aG"/><use transform="matrix(0.06172839506172839,0,0,0.06172839506172839,154.01234567901233,0)" xlink:href="#aX"/><use transform="matrix(0.06172839506172839,0,0,0.06172839506172839,161.358024691358,0)" xlink:href="#aY"/></g><path fill="#333" d="M141 0L90-78 38 0H4l68-98-65-92h35l48 74 47-74h35l-64 92 68 98h-35" id="br"/><g id="T"><use transform="matrix(0.06172839506172839,0,0,0.06172839506172839,0,0)" xlink:href="#aS"/><use transform="matrix(0.06172839506172839,0,0,0.06172839506172839,12.345679012345679,0)" xlink:href="#br"/><use transform="matrix(0.06172839506172839,0,0,0.06172839506172839,23.45679012345679,0)" xlink:href="#aQ"/><use transform="matrix(0.06172839506172839,0,0,0.06172839506172839,34.5679012345679,0)" xlink:href="#aV"/><use transform="matrix(0.06172839506172839,0,0,0.06172839506172839,39.44444444444444,0)" xlink:href="#aM"/><use transform="matrix(0.06172839506172839,0,0,0.06172839506172839,51.79012345679012,0)" xlink:href="#aJ"/><use transform="matrix(0.06172839506172839,0,0,0.06172839506172839,56.666666666666664,0)" xlink:href="#aR"/><use transform="matrix(0.06172839506172839,0,0,0.06172839506172839,64.01234567901234,0)" xlink:href="#aB"/><use transform="matrix(0.06172839506172839,0,0,0.06172839506172839,80,0)" xlink:href="#aC"/><use transform="matrix(0.06172839506172839,0,0,0.06172839506172839,92.34567901234568,0)" xlink:href="#aD"/><use transform="matrix(0.06172839506172839,0,0,0.06172839506172839,104.69135802469137,0)" xlink:href="#aE"/><use transform="matrix(0.06172839506172839,0,0,0.06172839506172839,123.14814814814815,0)" xlink:href="#aD"/><use transform="matrix(0.06172839506172839,0,0,0.06172839506172839,135.49382716049382,0)" xlink:href="#aF"/><use transform="matrix(0.06172839506172839,0,0,0.06172839506172839,147.8395061728395,0)" xlink:href="#aG"/><use transform="matrix(0.06172839506172839,0,0,0.06172839506172839,160.18518518518516,0)" xlink:href="#aX"/><use transform="matrix(0.06172839506172839,0,0,0.06172839506172839,167.53086419753083,0)" xlink:href="#aY"/></g><g id="U"><use transform="matrix(0.06172839506172839,0,0,0.06172839506172839,0,0)" xlink:href="#aE"/><use transform="matrix(0.06172839506172839,0,0,0.06172839506172839,18.456790123456788,0)" xlink:href="#aG"/><use transform="matrix(0.06172839506172839,0,0,0.06172839506172839,30.80246913580247,0)" xlink:href="#aF"/><use transform="matrix(0.06172839506172839,0,0,0.06172839506172839,43.148148148148145,0)" xlink:href="#aJ"/><use transform="matrix(0.06172839506172839,0,0,0.06172839506172839,48.02469135802469,0)" xlink:href="#aW"/><use transform="matrix(0.06172839506172839,0,0,0.06172839506172839,54.19753086419753,0)" xlink:href="#aJ"/><use transform="matrix(0.06172839506172839,0,0,0.06172839506172839,59.074074074074076,0)" xlink:href="#aQ"/><use transform="matrix(0.06172839506172839,0,0,0.06172839506172839,70.18518518518519,0)" xlink:href="#aD"/><use transform="matrix(0.06172839506172839,0,0,0.06172839506172839,82.53086419753087,0)" xlink:href="#aR"/><use transform="matrix(0.06172839506172839,0,0,0.06172839506172839,89.87654320987656,0)" xlink:href="#be"/><use transform="matrix(0.06172839506172839,0,0,0.06172839506172839,102.22222222222224,0)" xlink:href="#aG"/><use transform="matrix(0.06172839506172839,0,0,0.06172839506172839,114.56790123456793,0)" xlink:href="#aU"/><use transform="matrix(0.06172839506172839,0,0,0.06172839506172839,126.9135802469136,0)" xlink:href="#aJ"/><use transform="matrix(0.06172839506172839,0,0,0.06172839506172839,131.79012345679016,0)" xlink:href="#aL"/><use transform="matrix(0.06172839506172839,0,0,0.06172839506172839,144.13580246913583,0)" xlink:href="#aX"/><use transform="matrix(0.06172839506172839,0,0,0.06172839506172839,151.4814814814815,0)" xlink:href="#aY"/></g><g id="V"><use transform="matrix(0.06172839506172839,0,0,0.06172839506172839,0,0)" xlink:href="#aJ"/><use transform="matrix(0.06172839506172839,0,0,0.06172839506172839,4.876543209876543,0)" xlink:href="#aL"/><use transform="matrix(0.06172839506172839,0,0,0.06172839506172839,17.22222222222222,0)" xlink:href="#aH"/><use transform="matrix(0.06172839506172839,0,0,0.06172839506172839,28.333333333333332,0)" xlink:href="#aS"/><use transform="matrix(0.06172839506172839,0,0,0.06172839506172839,40.67901234567901,0)" xlink:href="#aR"/><use transform="matrix(0.06172839506172839,0,0,0.06172839506172839,48.02469135802469,0)" xlink:href="#aJ"/><use transform="matrix(0.06172839506172839,0,0,0.06172839506172839,52.901234567901234,0)" xlink:href="#aR"/><use transform="matrix(0.06172839506172839,0,0,0.06172839506172839,60.24691358024691,0)" xlink:href="#bg"/><use transform="matrix(0.06172839506172839,0,0,0.06172839506172839,75.06172839506172,0)" xlink:href="#aO"/><use transform="matrix(0.06172839506172839,0,0,0.06172839506172839,81.23456790123456,0)" xlink:href="#aS"/><use transform="matrix(0.06172839506172839,0,0,0.06172839506172839,93.58024691358024,0)" xlink:href="#aL"/><use transform="matrix(0.06172839506172839,0,0,0.06172839506172839,105.92592592592592,0)" xlink:href="#aF"/><use transform="matrix(0.06172839506172839,0,0,0.06172839506172839,118.27160493827161,0)" xlink:href="#aS"/><use transform="matrix(0.06172839506172839,0,0,0.06172839506172839,130.6172839506173,0)" xlink:href="#aL"/><use transform="matrix(0.06172839506172839,0,0,0.06172839506172839,142.96296296296296,0)" xlink:href="#aO"/><use transform="matrix(0.06172839506172839,0,0,0.06172839506172839,149.1358024691358,0)" xlink:href="#aS"/><use transform="matrix(0.06172839506172839,0,0,0.06172839506172839,161.48148148148147,0)" xlink:href="#aX"/><use transform="matrix(0.06172839506172839,0,0,0.06172839506172839,168.82716049382714,0)" xlink:href="#aY"/></g><g id="W"><use transform="matrix(0.06172839506172839,0,0,0.06172839506172839,0,0)" xlink:href="#aS"/><use transform="matrix(0.06172839506172839,0,0,0.06172839506172839,12.345679012345679,0)" xlink:href="#br"/><use transform="matrix(0.06172839506172839,0,0,0.06172839506172839,23.45679012345679,0)" xlink:href="#aQ"/><use transform="matrix(0.06172839506172839,0,0,0.06172839506172839,34.5679012345679,0)" xlink:href="#aV"/><use transform="matrix(0.06172839506172839,0,0,0.06172839506172839,39.44444444444444,0)" xlink:href="#aM"/><use transform="matrix(0.06172839506172839,0,0,0.06172839506172839,51.79012345679012,0)" xlink:href="#aJ"/><use transform="matrix(0.06172839506172839,0,0,0.06172839506172839,56.666666666666664,0)" xlink:href="#aR"/><use transform="matrix(0.06172839506172839,0,0,0.06172839506172839,64.01234567901234,0)" xlink:href="#bg"/><use transform="matrix(0.06172839506172839,0,0,0.06172839506172839,78.82716049382715,0)" xlink:href="#aO"/><use transform="matrix(0.06172839506172839,0,0,0.06172839506172839,84.99999999999999,0)" xlink:href="#aS"/><use transform="matrix(0.06172839506172839,0,0,0.06172839506172839,97.34567901234567,0)" xlink:href="#aL"/><use transform="matrix(0.06172839506172839,0,0,0.06172839506172839,109.69135802469135,0)" xlink:href="#aF"/><use transform="matrix(0.06172839506172839,0,0,0.06172839506172839,122.03703703703704,0)" xlink:href="#aS"/><use transform="matrix(0.06172839506172839,0,0,0.06172839506172839,134.3827160493827,0)" xlink:href="#aL"/><use transform="matrix(0.06172839506172839,0,0,0.06172839506172839,146.72839506172838,0)" xlink:href="#aO"/><use transform="matrix(0.06172839506172839,0,0,0.06172839506172839,152.9012345679012,0)" xlink:href="#aS"/><use transform="matrix(0.06172839506172839,0,0,0.06172839506172839,165.24691358024688,0)" xlink:href="#aX"/><use transform="matrix(0.06172839506172839,0,0,0.06172839506172839,172.59259259259255,0)" xlink:href="#aY"/></g><path fill="#333" d="M195-6C206 82 75 100 31 46c-4-6-6-13-8-21l49-6c3 16 16 24 34 25 40 0 42-37 40-79-11 22-30 35-61 35-53 0-70-43-70-97 0-56 18-96 73-97 30 0 46 14 59 34l2-30h47zm-90-29c32 0 41-27 41-63 0-35-9-62-40-62-32 0-39 29-40 63 0 36 9 62 39 62" id="bs"/><path fill="#333" d="M185-48c-13 30-37 53-82 52C43 2 14-33 14-96s30-98 90-98c62 0 83 45 84 108H66c0 31 8 55 39 56 18 0 30-7 34-22zm-45-69c5-46-57-63-70-21-2 6-4 13-4 21h74" id="bt"/><path fill="#333" d="M135-150c-39-12-60 13-60 57V0H25l-1-190h47c2 13-1 29 3 40 6-28 27-53 61-41v41" id="bu"/><path fill="#333" d="M135-194c87-1 58 113 63 194h-50c-7-57 23-157-34-157-59 0-34 97-39 157H25l-1-190h47c2 12-1 28 3 38 12-26 28-41 61-42" id="bv"/><path fill="#333" d="M190-63c-7 42-38 67-86 67-59 0-84-38-90-98-12-110 154-137 174-36l-49 2c-2-19-15-32-35-32-30 0-35 28-38 64-6 74 65 87 74 30" id="bw"/><path fill="#333" d="M133-34C117-15 103 5 69 4 32 3 11-16 11-54c-1-60 55-63 116-61 1-26-3-47-28-47-18 1-26 9-28 27l-52-2c7-38 36-58 82-57s74 22 75 68l1 82c-1 14 12 18 25 15v27c-30 8-71 5-69-32zm-48 3c29 0 43-24 42-57-32 0-66-3-65 30 0 17 8 27 23 27" id="bx"/><g id="X"><use transform="matrix(0.04938271604938272,0,0,0.04938271604938272,0,0)" xlink:href="#bs"/><use transform="matrix(0.04938271604938272,0,0,0.04938271604938272,10.814814814814815,0)" xlink:href="#bt"/><use transform="matrix(0.04938271604938272,0,0,0.04938271604938272,20.69135802469136,0)" xlink:href="#bu"/><use transform="matrix(0.04938271604938272,0,0,0.04938271604938272,27.604938271604947,0)" xlink:href="#bt"/><use transform="matrix(0.04938271604938272,0,0,0.04938271604938272,37.48148148148149,0)" xlink:href="#bv"/><use transform="matrix(0.04938271604938272,0,0,0.04938271604938272,48.296296296296305,0)" xlink:href="#bw"/><use transform="matrix(0.04938271604938272,0,0,0.04938271604938272,58.17283950617284,0)" xlink:href="#bl"/><use transform="matrix(0.04938271604938272,0,0,0.04938271604938272,63.111111111111114,0)" xlink:href="#bx"/><use transform="matrix(0.04938271604938272,0,0,0.04938271604938272,72.98765432098767,0)" xlink:href="#bu"/></g><g id="Y"><use transform="matrix(0.06172839506172839,0,0,0.06172839506172839,0,0)" xlink:href="#bg"/><use transform="matrix(0.06172839506172839,0,0,0.06172839506172839,14.814814814814813,0)" xlink:href="#aO"/><use transform="matrix(0.06172839506172839,0,0,0.06172839506172839,20.98765432098765,0)" xlink:href="#aS"/><use transform="matrix(0.06172839506172839,0,0,0.06172839506172839,33.33333333333333,0)" xlink:href="#aL"/><use transform="matrix(0.06172839506172839,0,0,0.06172839506172839,45.679012345679006,0)" xlink:href="#aF"/><use transform="matrix(0.06172839506172839,0,0,0.06172839506172839,58.02469135802468,0)" xlink:href="#aS"/><use transform="matrix(0.06172839506172839,0,0,0.06172839506172839,70.37037037037037,0)" xlink:href="#aL"/><use transform="matrix(0.06172839506172839,0,0,0.06172839506172839,82.71604938271605,0)" xlink:href="#aO"/><use transform="matrix(0.06172839506172839,0,0,0.06172839506172839,88.88888888888889,0)" xlink:href="#aS"/></g></defs></g></svg>