<svg xmlns="http://www.w3.org/2000/svg" xmlns:xlink="http://www.w3.org/1999/xlink" xmlns:lucid="lucid" width="1816.7" height="1220"><g transform="translate(-26.297048286484525 -51.417322834645574)" lucid:page-tab-id="0_0"><path d="M0 0h1870.87v1322.84H0z" fill="#fff"/><path d="M232.4 77.42a6 6 0 0 1 6-6H1594.7a6 6 0 0 1 6 6v1168a6 6 0 0 1-6 6H238.4a6 6 0 0 1-6-6z" stroke="#5e5e5e" stroke-width="3" fill-opacity="0"/><use xlink:href="#a" transform="matrix(1,0,0,1,240.3879206638901,79.41732283464557) translate(394.52469135802494 28.444444444444425)"/><use xlink:href="#b" transform="matrix(1,0,0,1,240.3879206638901,79.41732283464557) translate(540.5987654320988 28.444444444444425)"/><use xlink:href="#c" transform="matrix(1,0,0,1,240.3879206638901,79.41732283464557) translate(591.8580246913581 28.444444444444425)"/><use xlink:href="#d" transform="matrix(1,0,0,1,240.3879206638901,79.41732283464557) translate(722.0308641975308 28.444444444444425)"/><use xlink:href="#e" transform="matrix(1,0,0,1,240.3879206638901,79.41732283464557) translate(775.1666666666665 28.444444444444425)"/><use xlink:href="#f" transform="matrix(1,0,0,1,240.3879206638901,79.41732283464557) translate(875.7098765432097 28.444444444444425)"/><use xlink:href="#g" transform="matrix(1,0,0,1,240.3879206638901,79.41732283464557) translate(926.9691358024689 28.444444444444425)"/><use xlink:href="#h" transform="matrix(1,0,0,1,240.3879206638901,79.41732283464557) translate(424.32407407407413 69.33333333333329)"/><use xlink:href="#i" transform="matrix(1,0,0,1,240.3879206638901,79.41732283464557) translate(551.6388888888889 69.33333333333329)"/><use xlink:href="#j" transform="matrix(1,0,0,1,240.3879206638901,79.41732283464557) translate(599.6944444444445 69.33333333333329)"/><use xlink:href="#k" transform="matrix(1,0,0,1,240.3879206638901,79.41732283464557) translate(716.0833333333333 69.33333333333329)"/><use xlink:href="#l" transform="matrix(1,0,0,1,240.3879206638901,79.41732283464557) translate(764.1388888888889 69.33333333333329)"/><path d="M109.16 439.75c0 10.9-8.84 19.75-19.75 19.75-10.9 0-19.74-8.84-19.74-19.75 0-10.9 8.84-19.75 19.75-19.75 10.92 0 19.76 8.84 19.76 19.75z" stroke="#5e5e5e" stroke-width="3" fill="#fff"/><path d="M89.4 459.5v49.3a20.34 20.34 0 0 0 3.27 11.04l37.6 58.16M89.4 514.8L48.57 578m0-98.75h81.7" stroke="#5e5e5e" stroke-width="3" fill="none"/><path d="M48.56 426a6 6 0 0 1 6-6h69.7a6 6 0 0 1 6 6v168a6 6 0 0 1-6 6h-69.7a6 6 0 0 1-6-6z" fill="none"/><use xlink:href="#m" transform="matrix(1,0,0,1,-31.437519614750045,578) translate(79.73456790123457 17.77777777777778)"/><path d="M1750.66 311.17c0 10.9-8.84 19.75-19.75 19.75-10.9 0-19.74-8.85-19.74-19.75s8.84-19.75 19.75-19.75c10.92 0 19.76 8.84 19.76 19.75z" stroke="#5e5e5e" stroke-width="3" fill="#fff"/><path d="M1730.9 330.92v49.3a17 17 0 0 0 3.77 10.67l47.15 58.52m-50.9-63.2l-50.92 63.2m0-98.75h101.82" stroke="#5e5e5e" stroke-width="3" fill="none"/><path d="M1680 297.42a6 6 0 0 1 6-6h89.82a6 6 0 0 1 6 6v168a6 6 0 0 1-6 6H1686a6 6 0 0 1-6-6z" fill="none"/><use xlink:href="#n" transform="matrix(1,0,0,1,1600,449.4173228346456) translate(80.38271604938271 17.77777777777778)"/><path d="M512.25 321.42c0 33.13-36.58 60-81.7 60-45.12 0-81.7-26.87-81.7-60 0-33.14 36.58-60 81.7-60 45.12 0 81.7 26.86 81.7 60z" stroke="#5e5e5e" stroke-width="3" fill="#fff"/><use xlink:href="#o" transform="matrix(1,0,0,1,348.85122927820197,261.4173228346454) translate(51.605 51.9)"/><use xlink:href="#p" transform="matrix(1,0,0,1,348.85122927820197,261.4173228346454) translate(40.029999999999994 73.5)"/><path d="M1434.35 411.42c0 33.13-36.58 60-81.7 60-45.12 0-81.7-26.87-81.7-60 0-33.14 36.58-60 81.7-60 45.12 0 81.7 26.86 81.7 60z" stroke="#5e5e5e" stroke-width="3" fill="#00c2a8"/><use xlink:href="#q" transform="matrix(1,0,0,1,1270.950729638538,351.41732283464563) translate(49.529999999999994 51.9)"/><use xlink:href="#p" transform="matrix(1,0,0,1,1270.950729638538,351.41732283464563) translate(40.029999999999994 73.5)"/><path d="M1003.4 901.42c0 33.13-36.58 60-81.7 60-45.12 0-81.7-26.87-81.7-60 0-33.14 36.58-60 81.7-60 45.12 0 81.7 26.86 81.7 60z" stroke="#5e5e5e" stroke-width="3" fill="#ff8f8f"/><use xlink:href="#r" transform="matrix(1,0,0,1,840,841.4173228346455) translate(42.57999999999999 51.9)"/><use xlink:href="#p" transform="matrix(1,0,0,1,840,841.4173228346455) translate(40.029999999999994 73.5)"/><path d="M131.07 478.08L346.54 322" stroke="#5e5e5e" stroke-width="2" fill="none"/><path d="M128.42 481.24l-.35-.5h1.02zm3.26-2.37l-1.42 1.03v-2.15h-.44l.7-.5zM347.35 321.4l.03 1.23-.27.2-1.17-1.62 1.46-1.05z" stroke="#5e5e5e" stroke-width=".05" fill="#5e5e5e"/><path d="M1434.35 231.42c0 33.13-36.58 60-81.7 60-45.12 0-81.7-26.87-81.7-60 0-33.14 36.58-60 81.7-60 45.12 0 81.7 26.86 81.7 60z" stroke="#5e5e5e" stroke-width="3" fill="#00c2a8"/><use xlink:href="#s" transform="matrix(1,0,0,1,1270.950729638538,171.41732283464557) translate(37.105 63.15)"/><use xlink:href="#t" transform="matrix(1,0,0,1,1270.950729638538,171.41732283464557) translate(88.005 63.15)"/><path d="M1679.03 349.4l-242.2 61.77" stroke="#5e5e5e" stroke-width="2" fill="none"/><path d="M1683.1 349.17h-3.1v1.03l-.75.2-.5-1.95 3.9-1zM1437.1 412.13l-1.28.33.03-1.03-.02-1.04.77-.2z" stroke="#5e5e5e" stroke-width=".05" fill="#5e5e5e"/><path d="M1679.1 348.73l-242.35-116.88" stroke="#5e5e5e" stroke-width="2" fill="none"/><path d="M1682.3 349.17h-2.3v1.1l-1.36-.65.87-1.8zM1437.2 230.96l-.86 1.8-.52-.25.03-1.07-.02-1.13z" stroke="#5e5e5e" stroke-width=".05" fill="#5e5e5e"/><path d="M1750.66 959.75c0 10.9-8.84 19.75-19.75 19.75-10.9 0-19.74-8.84-19.74-19.75 0-10.9 8.84-19.75 19.75-19.75 10.92 0 19.76 8.84 19.76 19.75z" stroke="#5e5e5e" stroke-width="3" fill="#fff"/><path d="M1730.9 979.5v49.3a17 17 0 0 0 3.77 10.67l47.15 58.53m-50.9-63.2L1680 1098m0-98.75h101.82" stroke="#5e5e5e" stroke-width="3" fill="none"/><path d="M1680 946a6 6 0 0 1 6-6h89.82a6 6 0 0 1 6 6v168a6 6 0 0 1-6 6H1686a6 6 0 0 1-6-6z" fill="none"/><use xlink:href="#u" transform="matrix(1,0,0,1,1600,1098) translate(62.63580246913581 17.77777777777778)"/><path d="M1730.7 388.86l.2-.25M1730.7 388.87l.82-1.02M1730.92 388.6l-.82 1.02M1799.14 352.17H1834a6 6 0 0 1 6 6V724a6 6 0 0 1-6 6h-97.1a6 6 0 0 0-6 6v201.5" stroke="#5e5e5e" stroke-width="2" fill="none"/><path d="M1776.62 352.17l21.52-12.73v25.45z" stroke="#5e5e5e" stroke-width="2" fill="#fff"/><path d="M1731.9 938.6l-.92-.1-1.07.02v-1.05h2z" stroke="#5e5e5e" stroke-width=".05" fill="#5e5e5e"/><path d="M1679 998.52l-673.1-96.96" stroke="#5e5e5e" stroke-width="2" fill="none"/><path d="M1680.65 997.75h-.65v1.93l-1.16-.17.3-1.97zM1006.06 900.57l-.3 1.98-.9-.13.04-1-.02-1.02z" stroke="#5e5e5e" stroke-width=".05" fill="#5e5e5e"/><path d="M903.4 1140c0 33.14-36.58 60-81.7 60-45.12 0-81.7-26.86-81.7-60s36.58-60 81.7-60c45.12 0 81.7 26.86 81.7 60z" stroke="#5e5e5e" stroke-width="3" fill="#ffd9d9"/><use xlink:href="#v" transform="matrix(1,0,0,1,740,1080) translate(18.104999999999997 63.15)"/><use xlink:href="#w" transform="matrix(1,0,0,1,740,1080) translate(70.95500000000001 63.15)"/><path d="M1103.4 1140c0 33.14-36.58 60-81.7 60-45.12 0-81.7-26.86-81.7-60s36.58-60 81.7-60c45.12 0 81.7 26.86 81.7 60z" stroke="#5e5e5e" stroke-width="3" fill="#ffd9d9"/><use xlink:href="#x" transform="matrix(1,0,0,1,940,1080) translate(18.57999999999999 63.15)"/><use xlink:href="#w" transform="matrix(1,0,0,1,940,1080) translate(70.47999999999999 63.15)"/><path d="M1303.4 1140c0 33.14-36.58 60-81.7 60-45.12 0-81.7-26.86-81.7-60s36.58-60 81.7-60c45.12 0 81.7 26.86 81.7 60z" stroke="#5e5e5e" stroke-width="3" fill="#ffd9d9"/><use xlink:href="#y" transform="matrix(1,0,0,1,1140,1080) translate(15.104999999999999 63.15)"/><use xlink:href="#w" transform="matrix(1,0,0,1,1140,1080) translate(73.95500000000001 63.15)"/><path d="M826.98 1067.43l-4 10.5-1.86-.72 4-10.5zm11.98-31.5l-7.98 21-1.87-.7 8-21zm4-10.48l-1.5-.57h1.7zm19.96-52.47l-8 21-1.85-.72 7.98-21zm8-21l-4 10.5-1.88-.7 4-10.5z" stroke="#5e5e5e" stroke-width=".05" fill="#5e5e5e"/><path d="M823 1077.9l-.24.63-1.05-.03-1.08.02.5-1.34z" fill="#5e5e5e"/><path d="M823.03 1077.88l-.25.68-1.07-.03-1.12.02.54-1.4zm-2.37.62l1.05-.03 1.04.04.23-.6-1.83-.68zM874.3 971.3l-1.97.35-3.1-18.04-14.33 11.42-1.24-1.56 16.96-13.52z" stroke="#5e5e5e" stroke-width=".05" fill="#5e5e5e"/><use xlink:href="#z" transform="matrix(1,0,0,1,796.8504464985039,1003.5515028472402) translate(0 14.222222222222223)"/><path d="M1021.8 1077.1l-1.5 1.3-6.55-7.57 1.5-1.3zm-13.08-15.14l-1.52 1.3-13.1-15.12 1.53-1.3zm-19.64-22.7l-1.5 1.32-7.97-9.2h2.65zm-25.3-29.22h-2.63l-6.3-7.28 1.5-1.3zm-13.96-16.15l-1.5 1.3-13.1-15.13 1.5-1.3zm-19.63-22.7l-1.52 1.3-6.55-7.55 1.52-1.3z" stroke="#5e5e5e" stroke-width=".05" fill="#5e5e5e"/><path d="M1023.06 1078.54l-1.35-.04-1.3.03-.13-.15 1.5-1.3z" fill="#5e5e5e"/><path d="M1023.1 1078.57l-1.4-.04-1.3.02-.16-.17 1.55-1.35zm-2.8-.2l.1.13 1.3-.03 1.3.04-1.22-1.4zM942.27 969.8l-.64 1.9-17.36-5.8 3.26 18-1.96.36-3.87-21.34z" stroke="#5e5e5e" stroke-width=".05" fill="#5e5e5e"/><use xlink:href="#z" transform="matrix(1,0,0,1,922.391553704087,1010.0419947571813) translate(0 14.222222222222223)"/><path d="M1221.3 1077.15l-.95 1.76-8.98-4.8.95-1.76zm-17.96-9.62l-.94 1.77-17.95-9.6.94-1.78zm-26.92-14.4l-.95 1.75-17.94-9.6.94-1.77zm-26.93-14.43l-.95 1.77-17.95-9.6.95-1.78zm-26.93-14.4l-.94 1.75-4.53-2.42h4.24zm-41.07-22h-4.24l-.5-.28.94-1.76zm-12.78-6.84l-.94 1.76-17.95-9.6.94-1.78zm-26.92-14.42l-.94 1.76-17.95-9.6.95-1.77zm-26.92-14.42l-.95 1.77-17.95-9.63.95-1.76zm-26.93-14.4l-.94 1.75-8.97-4.8.95-1.77z" stroke="#5e5e5e" stroke-width=".05" fill="#5e5e5e"/><path d="M1223.95 1078.57l-2.24-.07-1.18.02.75-1.4z" fill="#5e5e5e"/><path d="M1224.05 1078.6l-2.34-.07-1.22.02.78-1.45zm-3.48-.1l1.14-.03 2.14.07-2.56-1.37zM998.66 948.5l-18.3.78 9.5 15.65-1.7 1.04-11.26-18.55 21.67-.92z" stroke="#5e5e5e" stroke-width=".05" fill="#5e5e5e"/><use xlink:href="#z" transform="matrix(1,0,0,1,1049.9927239988085,1002.2954167194578) translate(0 14.222222222222223)"/><path d="M512.25 521.42c0 33.13-36.58 60-81.7 60-45.12 0-81.7-26.87-81.7-60 0-33.14 36.58-60 81.7-60 45.12 0 81.7 26.86 81.7 60z" stroke="#5e5e5e" stroke-width="3" fill="#fff"/><use xlink:href="#A" transform="matrix(1,0,0,1,348.85122927820197,461.4173228346456) translate(9.554999999999987 63.15)"/><use xlink:href="#w" transform="matrix(1,0,0,1,348.85122927820197,461.4173228346456) translate(79.505 63.15)"/><path d="M798.2 321.42c0 33.13-36.58 60-81.7 60-45.12 0-81.7-26.87-81.7-60 0-33.14 36.58-60 81.7-60 45.12 0 81.7 26.86 81.7 60z" stroke="#5e5e5e" stroke-width="3" fill="#fff"/><use xlink:href="#B" transform="matrix(1,0,0,1,634.8019141560867,261.4173228346454) translate(30.07999999999999 51.9)"/><use xlink:href="#C" transform="matrix(1,0,0,1,634.8019141560867,261.4173228346454) translate(80.98 51.9)"/><use xlink:href="#w" transform="matrix(1,0,0,1,634.8019141560867,261.4173228346454) translate(44.529999999999994 73.5)"/><path d="M798.2 521.42c0 33.13-36.58 60-81.7 60-45.12 0-81.7-26.87-81.7-60 0-33.14 36.58-60 81.7-60 45.12 0 81.7 26.86 81.7 60z" stroke="#5e5e5e" stroke-width="3" fill="#fff"/><use xlink:href="#D" transform="matrix(1,0,0,1,634.8019141560867,461.4173228346456) translate(54.03 40.65)"/><use xlink:href="#E" transform="matrix(1,0,0,1,634.8019141560867,461.4173228346456) translate(29.054999999999993 62.25)"/><use xlink:href="#F" transform="matrix(1,0,0,1,634.8019141560867,461.4173228346456) translate(108.005 62.25)"/><use xlink:href="#G" transform="matrix(1,0,0,1,634.8019141560867,461.4173228346456) translate(55.03 83.85000000000001)"/><path d="M512.25 781.42c0 33.13-36.58 60-81.7 60-45.12 0-81.7-26.87-81.7-60 0-33.14 36.58-60 81.7-60 45.12 0 81.7 26.86 81.7 60z" stroke="#5e5e5e" stroke-width="3" fill="#fff"/><use xlink:href="#H" transform="matrix(1,0,0,1,348.85122927820197,721.4173228346455) translate(51.58 40.65)"/><use xlink:href="#I" transform="matrix(1,0,0,1,348.85122927820197,721.4173228346455) translate(24.554999999999993 62.25)"/><use xlink:href="#J" transform="matrix(1,0,0,1,348.85122927820197,721.4173228346455) translate(118.45500000000001 62.25)"/><use xlink:href="#K" transform="matrix(1,0,0,1,348.85122927820197,721.4173228346455) translate(65.555 83.85000000000001)"/><path d="M1434.35 591.42c0 33.13-36.58 60-81.7 60-45.12 0-81.7-26.87-81.7-60 0-33.14 36.58-60 81.7-60 45.12 0 81.7 26.86 81.7 60z" stroke="#5e5e5e" stroke-width="3" fill="#00c2a8"/><use xlink:href="#L" transform="matrix(1,0,0,1,1270.950729638538,531.4173228346458) translate(10.554999999999987 63.15)"/><use xlink:href="#w" transform="matrix(1,0,0,1,1270.950729638538,531.4173228346458) translate(78.505 63.15)"/><path d="M514.75 321.42h19.46m19.46 0h38.9m19.47 0h19.45" stroke="#5e5e5e" stroke-width="2" fill="none"/><path d="M514.78 322.42h-1.06l.03-1-.02-1h1.05z" stroke="#5e5e5e" stroke-width=".05" fill="#5e5e5e"/><path d="M614.12 331.6l17.22-10.18-17.22-10.18" stroke="#5e5e5e" stroke-width="2" fill="none"/><use xlink:href="#M" transform="matrix(1,0,0,1,521.7489894393666,285.9031611863046) translate(0 14.222222222222223)"/><path d="M431.55 718.92h-2v-22.37h2zm0-44.73h-2v-12.12h2zm0-33.45h-2v-11.3h2zm0-33.65h-2v-22.36h2z" stroke="#5e5e5e" stroke-width=".05" fill="#5e5e5e"/><path d="M431.55 719.95l-1-.03-1 .02v-1.05h2z" fill="#5e5e5e"/><path d="M431.58 719.97l-1.02-.03-1.03.02v-1.1h2.05zm-2-1.05v1l.98-.03.97.02v-1zM441.6 601.6l-1.73 1-9.32-15.75-9.32 15.76-1.72-1 11.05-18.68z" stroke="#5e5e5e" stroke-width=".05" fill="#5e5e5e"/><use xlink:href="#z" transform="matrix(1,0,0,1,381.24278298228893,640.7506561745041) translate(0 14.222222222222223)"/><path d="M514.75 521.42h19.46m19.46 0h38.9m19.47 0h19.45" stroke="#5e5e5e" stroke-width="2" fill="none"/><path d="M514.78 522.42h-1.06l.03-1-.02-1h1.05z" stroke="#5e5e5e" stroke-width=".05" fill="#5e5e5e"/><path d="M614.12 531.6l17.22-10.18-17.22-10.18" stroke="#5e5e5e" stroke-width="2" fill="none"/><use xlink:href="#M" transform="matrix(1,0,0,1,521.7489894393666,485.9031611863048) translate(0 14.222222222222223)"/><path d="M131.24 478.86l215.13 42.36" stroke="#5e5e5e" stroke-width="2" fill="none"/><path d="M131.46 477.88l-.38 1.97-.82-.16v-1.95h-2.87l.1-.64zM347.38 520.4l-.03 1 .02 1.04-1.22-.24.4-1.96z" stroke="#5e5e5e" stroke-width=".05" fill="#5e5e5e"/><path d="M1679.3 349.87L1436.55 590.7" stroke="#5e5e5e" stroke-width="2" fill="none"/><path d="M1682.83 347.76l-1.4 1.4H1680v1.42l-.02.02-1.4-1.42 2.85-2.84zM1437.28 591.4l-1.47 1.47.05-1.45-.03-1.38.06-.05z" stroke="#5e5e5e" stroke-width=".05" fill="#5e5e5e"/><path d="M1160 231.42c0 33.13-35.82 60-80 60s-80-26.87-80-60c0-33.14 35.82-60 80-60s80 26.86 80 60z" stroke="#5e5e5e" stroke-width="3" fill="#b8f5ed"/><use xlink:href="#N" transform="matrix(1,0,0,1,1000,171.41732283464557) translate(20.604999999999997 63.15)"/><use xlink:href="#O" transform="matrix(1,0,0,1,1000,171.41732283464557) translate(90.405 63.15)"/><path d="M1160 411.42c0 33.13-35.82 60-80 60s-80-26.87-80-60c0-33.14 35.82-60 80-60s80 26.86 80 60z" stroke="#5e5e5e" stroke-width="3" fill="#b8f5ed"/><use xlink:href="#H" transform="matrix(1,0,0,1,1000,351.41732283464563) translate(49.58 40.65)"/><use xlink:href="#I" transform="matrix(1,0,0,1,1000,351.41732283464563) translate(23.054999999999993 62.25)"/><use xlink:href="#J" transform="matrix(1,0,0,1,1000,351.41732283464563) translate(116.95500000000001 62.25)"/><use xlink:href="#K" transform="matrix(1,0,0,1,1000,351.41732283464563) translate(64.055 83.85000000000001)"/><path d="M1160 591.42c0 33.13-35.82 60-80 60s-80-26.87-80-60c0-33.14 35.82-60 80-60s80 26.86 80 60z" stroke="#5e5e5e" stroke-width="3" fill="#b8f5ed"/><g><use xlink:href="#P" transform="matrix(1,0,0,1,1000,531.4173228346458) translate(17.104999999999997 51.9)"/><use xlink:href="#Q" transform="matrix(1,0,0,1,1000,531.4173228346458) translate(94.90500000000002 51.9)"/><use xlink:href="#w" transform="matrix(1,0,0,1,1000,531.4173228346458) translate(43.029999999999994 73.5)"/></g><path d="M1268.45 231.42h-17.52m-17.52 0h-35.04m-17.52 0h-17.52" stroke="#5e5e5e" stroke-width="2" fill="none"/><path d="M1269.45 231.4l.02 1.02h-1.05v-2h1.06z" stroke="#5e5e5e" stroke-width=".05" fill="#5e5e5e"/><path d="M1180.68 221.24l-17.22 10.18 17.22 10.18" stroke="#5e5e5e" stroke-width="2" fill="none"/><g><use xlink:href="#M" transform="matrix(1,0,0,1,1163.697437659034,195.90316118628897) translate(0 14.222222222222223)"/></g><path d="M1177.67 396.66l-14.76 14.76-1.4-1.42 14.75-14.75zm44.26-44.26l-29.5 29.5-1.42-1.4 29.52-29.5zm44.26-44.26l-17.9 17.9h-2.83l19.3-19.3zm29.5-29.5l-14.75 14.75-1.42-1.43 14.76-14.75z" stroke="#5e5e5e" stroke-width=".05" fill="#5e5e5e"/><path d="M1162.93 411.4l-1.48 1.48.05-1.44V411l-.04-.96z" fill="#5e5e5e"/><path d="M1162.97 411.4l-1.54 1.54.04-1.5V411l-.04-1.02zm-1.45-.4v.44l-.04 1.37 1.42-1.4-1.4-1.3zM1290.88 297.65l-1.93-.5 4.55-17.73-17.73 4.55-.5-1.94 21-5.4z" stroke="#5e5e5e" stroke-width=".05" fill="#5e5e5e"/><g><use xlink:href="#z" transform="matrix(1,0,0,1,1186.910975101487,326.0310519610868) translate(0 14.222222222222223)"/></g><path d="M1268.45 591.42h-17.52m-17.52 0h-35.04m-17.52 0h-17.52" stroke="#5e5e5e" stroke-width="2" fill="none"/><path d="M1269.45 591.4l.02 1.02h-1.05v-2h1.06z" stroke="#5e5e5e" stroke-width=".05" fill="#5e5e5e"/><path d="M1180.68 581.24l-17.22 10.18 17.22 10.18" stroke="#5e5e5e" stroke-width="2" fill="none"/><g><use xlink:href="#M" transform="matrix(1,0,0,1,1168.7729603160217,555.9031611862893) translate(0 14.222222222222223)"/></g><path d="M1434.35 771.42c0 33.13-36.58 60-81.7 60-45.12 0-81.7-26.87-81.7-60 0-33.14 36.58-60 81.7-60 45.12 0 81.7 26.86 81.7 60z" stroke="#5e5e5e" stroke-width="3" fill="#00c2a8"/><g><use xlink:href="#R" transform="matrix(1,0,0,1,1270.950729638538,711.417322834646) translate(47.57999999999999 51.9)"/><use xlink:href="#w" transform="matrix(1,0,0,1,1270.950729638538,711.417322834646) translate(44.529999999999994 73.5)"/></g><path d="M1269.45 770l-1.4 1.42-14.74-14.73 1.42-1.43zM1240 740.54l-1.42 1.42-27.16-27.16h2.83zm-47.08-47.07h-2.83l-25.17-25.16 1.4-1.4zm-41.3-41.3l-1.42 1.4-14.74-14.73 1.42-1.4z" stroke="#5e5e5e" stroke-width=".05" fill="#5e5e5e"/><path d="M1269.5 770.04l-.05 1.37.03 1.46-1.46-1.46 1.4-1.4z" fill="#5e5e5e"/><path d="M1269.52 770.03l-.05 1.38.04 1.52-1.52-1.52 1.45-1.45zm-1.47 1.37l1.4 1.4-.03-1.4.05-1.35-.04-.03zM1155.9 642.25l-.5 1.93-17.74-4.55 4.56 17.74-1.94.5-5.4-21.02z" stroke="#5e5e5e" stroke-width=".05" fill="#5e5e5e"/><g><use xlink:href="#M" transform="matrix(1,0,0,1,1150.3903352997163,693.4683512417377) translate(0 14.222222222222223)"/></g><path d="M700 1140c0 33.14-35.82 60-80 60s-80-26.86-80-60 35.82-60 80-60 80 26.86 80 60z" stroke="#5e5e5e" stroke-width="3" fill="#ffd9d9"/><g><use xlink:href="#S" transform="matrix(1,0,0,1,540,1080) translate(12.130000000000004 63.15)"/><use xlink:href="#w" transform="matrix(1,0,0,1,540,1080) translate(73.93 63.15)"/></g><path d="M1679.5 350.03l-243.15 420.52" stroke="#5e5e5e" stroke-width="2" fill="none"/><path d="M1682.37 347.07l-1.2 2.1h-1.17v1.18l-1.38-.8 2.02-3.48zM1437.23 771.03l-1.44 2.5.05-2.1-.02-1.2zM635.96 1067.95l-14.56 10.76-1.2-1.6 14.57-10.76zm43.68-32.28l-29.12 21.52-1.2-1.62 29.13-21.52zm14.56-10.76l-1.2-1.6 21.22-15.68h3.37zm72.8-53.8l-20.54 15.2h-3.37l22.72-16.8zm43.7-32.28l-29.13 21.52-1.2-1.6 29.13-21.53zm29.1-21.52l-14.55 10.76-1.2-1.6 14.57-10.77z" stroke="#5e5e5e" stroke-width=".05" fill="#5e5e5e"/><path d="M621.3 1078.54l-1.28-.04h-.95l-.8.04 1.96-1.45z" fill="#5e5e5e"/><path d="M621.36 1078.57l-1.34-.04h-.95l-.88.03 2.04-1.5zm-3-.06l.7-.02h.96l1.23.03-1.02-1.38zM832.23 935.4l-1.85-.8 7.14-16.85-18.2 1.87-.22-2 21.58-2.2z" stroke="#5e5e5e" stroke-width=".05" fill="#5e5e5e"/><g><use xlink:href="#z" transform="matrix(1,0,0,1,681.0309441718446,986.2896756332717) translate(0 14.222222222222223)"/></g><defs><path fill="#3a414a" d="M169-182c-1-43-94-46-97-3 18 66 151 10 154 114 3 95-165 93-204 36-6-8-10-19-12-30l50-8c3 46 112 56 116 5-17-69-150-10-154-114-4-87 153-88 188-35 5 8 8 18 10 28" id="T"/><path fill="#3a414a" d="M25-224v-37h50v37H25zM25 0v-190h50V0H25" id="U"/><path fill="#3a414a" d="M137-138c1-29-70-34-71-4 15 46 118 7 119 86 1 83-164 76-172 9l43-7c4 19 20 25 44 25 33 8 57-30 24-41C81-84 22-81 20-136c-2-80 154-74 161-7" id="V"/><path fill="#3a414a" d="M115-3C79 11 28 4 28-45v-112H4v-33h27l15-45h31v45h36v33H77v99c-1 23 16 31 38 25v30" id="W"/><path fill="#3a414a" d="M185-48c-13 30-37 53-82 52C43 2 14-33 14-96s30-98 90-98c62 0 83 45 84 108H66c0 31 8 55 39 56 18 0 30-7 34-22zm-45-69c5-46-57-63-70-21-2 6-4 13-4 21h74" id="X"/><path fill="#3a414a" d="M220-157c-53 9-28 100-34 157h-49v-107c1-27-5-49-29-50C55-147 81-57 75 0H25l-1-190h47c2 12-1 28 3 38 10-53 101-56 108 0 13-22 24-43 59-42 82 1 51 116 57 194h-49v-107c-1-25-5-48-29-50" id="Y"/><path fill="#3a414a" d="M133-34C117-15 103 5 69 4 32 3 11-16 11-54c-1-60 55-63 116-61 1-26-3-47-28-47-18 1-26 9-28 27l-52-2c7-38 36-58 82-57s74 22 75 68l1 82c-1 14 12 18 25 15v27c-30 8-71 5-69-32zm-48 3c29 0 43-24 42-57-32 0-66-3-65 30 0 17 8 27 23 27" id="Z"/><g id="a"><use transform="matrix(0.09876543209876536,0,0,0.09876543209876536,0,0)" xlink:href="#T"/><use transform="matrix(0.09876543209876536,0,0,0.09876543209876536,23.703703703703685,0)" xlink:href="#U"/><use transform="matrix(0.09876543209876536,0,0,0.09876543209876536,33.58024691358022,0)" xlink:href="#V"/><use transform="matrix(0.09876543209876536,0,0,0.09876543209876536,53.33333333333328,0)" xlink:href="#W"/><use transform="matrix(0.09876543209876536,0,0,0.09876543209876536,65.08641975308636,0)" xlink:href="#X"/><use transform="matrix(0.09876543209876536,0,0,0.09876543209876536,84.83950617283944,0)" xlink:href="#Y"/><use transform="matrix(0.09876543209876536,0,0,0.09876543209876536,116.44444444444433,0)" xlink:href="#Z"/></g><path fill="#3a414a" d="M88-194c31-1 46 15 58 34l-1-101h50l1 261h-48c-2-10 0-23-3-31C134-8 116 4 84 4 32 4 16-41 15-95c0-56 19-97 73-99zm17 164c33 0 40-30 41-66 1-37-9-64-41-64s-38 30-39 65c0 43 13 65 39 65" id="aa"/><g id="b"><use transform="matrix(0.09876543209876536,0,0,0.09876543209876536,0,0)" xlink:href="#aa"/><use transform="matrix(0.09876543209876536,0,0,0.09876543209876536,21.629629629629612,0)" xlink:href="#X"/></g><path fill="#3a414a" d="M67-125c0 54 23 88 75 88 28 0 53-7 68-21v-34h-60v-39h108v91C232-14 192 4 140 4 58 4 20-42 15-125 8-236 126-280 215-234c19 10 29 26 37 47l-47 15c-11-23-29-39-63-39-53 1-75 33-75 86" id="ab"/><path fill="#3a414a" d="M132-34C116-15 102 5 68 4 31 3 10-16 10-54c-1-60 55-63 116-61 1-26-3-47-28-47-18 1-26 9-28 27l-52-2c7-38 36-58 82-57s74 22 75 68l1 82c-1 14 12 18 25 15v27c-30 8-71 5-69-32zm-48 3c29 0 43-24 42-57-32 0-66-3-65 30 0 17 8 27 23 27zm82-228c-2 27-9 52-40 51-27-1-66-46-73 0H29c0-29 9-51 39-51 28 0 66 44 74 0h24" id="ac"/><path fill="#3a414a" d="M110-194c64 0 96 36 96 99 0 64-35 99-97 99-61 0-95-36-95-99 0-62 34-99 96-99zm-1 164c35 0 45-28 45-65 0-40-10-65-43-65-34 0-45 26-45 65 0 36 10 65 43 65" id="ad"/><g id="c"><use transform="matrix(0.09876543209876536,0,0,0.09876543209876536,0,0)" xlink:href="#ab"/><use transform="matrix(0.09876543209876536,0,0,0.09876543209876536,27.6543209876543,0)" xlink:href="#X"/><use transform="matrix(0.09876543209876536,0,0,0.09876543209876536,47.407407407407376,0)" xlink:href="#V"/><use transform="matrix(0.09876543209876536,0,0,0.09876543209876536,67.16049382716045,0)" xlink:href="#W"/><use transform="matrix(0.09876543209876536,0,0,0.09876543209876536,78.91358024691353,0)" xlink:href="#ac"/><use transform="matrix(0.09876543209876536,0,0,0.09876543209876536,98.6666666666666,0)" xlink:href="#ad"/></g><g id="d"><use transform="matrix(0.09876543209876536,0,0,0.09876543209876536,0,0)" xlink:href="#aa"/><use transform="matrix(0.09876543209876536,0,0,0.09876543209876536,21.629629629629612,0)" xlink:href="#ad"/></g><path fill="#3a414a" d="M135-150c-39-12-60 13-60 57V0H25l-1-190h47c2 13-1 29 3 40 6-28 27-53 61-41v41" id="ae"/><g id="e"><use transform="matrix(0.09876543209876536,0,0,0.09876543209876536,0,0)" xlink:href="#T"/><use transform="matrix(0.09876543209876536,0,0,0.09876543209876536,23.703703703703685,0)" xlink:href="#X"/><use transform="matrix(0.09876543209876536,0,0,0.09876543209876536,43.456790123456756,0)" xlink:href="#W"/><use transform="matrix(0.09876543209876536,0,0,0.09876543209876536,55.20987654320984,0)" xlink:href="#ad"/><use transform="matrix(0.09876543209876536,0,0,0.09876543209876536,76.83950617283944,0)" xlink:href="#ae"/></g><g id="f"><use transform="matrix(0.09876543209876536,0,0,0.09876543209876536,0,0)" xlink:href="#aa"/><use transform="matrix(0.09876543209876536,0,0,0.09876543209876536,21.629629629629612,0)" xlink:href="#X"/></g><path fill="#3a414a" d="M136-208V0H84v-208H4v-40h212v40h-80" id="af"/><path fill="#3a414a" d="M24 0v-248h52V0H24" id="ag"/><g id="g"><use transform="matrix(0.09876543209876536,0,0,0.09876543209876536,0,0)" xlink:href="#af"/><use transform="matrix(0.09876543209876536,0,0,0.09876543209876536,21.629629629629612,0)" xlink:href="#ag"/></g><path fill="#3a414a" d="M230 0l2-204L168 0h-37L68-204 70 0H24v-248h70l56 185 57-185h69V0h-46" id="ah"/><path fill="#3a414a" d="M110-194c64 0 96 36 96 99 0 64-35 99-97 99-61 0-95-36-95-99 0-62 34-99 96-99zm-1 164c35 0 45-28 45-65 0-40-10-65-43-65-34 0-45 26-45 65 0 36 10 65 43 65zM81-208v-5l45-51h45v8l-60 48H81" id="ai"/><path fill="#3a414a" d="M85 4C-2 5 27-109 22-190h50c7 57-23 150 33 157 60-5 35-97 40-157h50l1 190h-47c-2-12 1-28-3-38-12 25-28 42-61 42" id="aj"/><path fill="#3a414a" d="M25 0v-261h50V0H25" id="ak"/><g id="h"><use transform="matrix(0.09259259259259256,0,0,0.09259259259259256,0,0)" xlink:href="#ah"/><use transform="matrix(0.09259259259259256,0,0,0.09259259259259256,27.685185185185176,0)" xlink:href="#ai"/><use transform="matrix(0.09259259259259256,0,0,0.09259259259259256,47.96296296296295,0)" xlink:href="#aa"/><use transform="matrix(0.09259259259259256,0,0,0.09259259259259256,68.24074074074072,0)" xlink:href="#aj"/><use transform="matrix(0.09259259259259256,0,0,0.09259259259259256,88.51851851851849,0)" xlink:href="#ak"/><use transform="matrix(0.09259259259259256,0,0,0.09259259259259256,97.77777777777774,0)" xlink:href="#ad"/></g><g id="i"><use transform="matrix(0.09259259259259256,0,0,0.09259259259259256,0,0)" xlink:href="#aa"/><use transform="matrix(0.09259259259259256,0,0,0.09259259259259256,20.27777777777777,0)" xlink:href="#X"/></g><path fill="#3a414a" d="M195-6C206 82 75 100 31 46c-4-6-6-13-8-21l49-6c3 16 16 24 34 25 40 0 42-37 40-79-11 22-30 35-61 35-53 0-70-43-70-97 0-56 18-96 73-97 30 0 46 14 59 34l2-30h47zm-90-29c32 0 41-27 41-63 0-35-9-62-40-62-32 0-39 29-40 63 0 36 9 62 39 62" id="al"/><g id="j"><use transform="matrix(0.09259259259259256,0,0,0.09259259259259256,0,0)" xlink:href="#al"/><use transform="matrix(0.09259259259259256,0,0,0.09259259259259256,20.27777777777777,0)" xlink:href="#X"/><use transform="matrix(0.09259259259259256,0,0,0.09259259259259256,38.79629629629628,0)" xlink:href="#V"/><use transform="matrix(0.09259259259259256,0,0,0.09259259259259256,57.314814814814795,0)" xlink:href="#W"/><use transform="matrix(0.09259259259259256,0,0,0.09259259259259256,68.33333333333331,0)" xlink:href="#ac"/><use transform="matrix(0.09259259259259256,0,0,0.09259259259259256,86.85185185185182,0)" xlink:href="#ad"/></g><g id="k"><use transform="matrix(0.09259259259259256,0,0,0.09259259259259256,0,0)" xlink:href="#aa"/><use transform="matrix(0.09259259259259256,0,0,0.09259259259259256,20.27777777777777,0)" xlink:href="#X"/></g><path fill="#3a414a" d="M190-63c-7 42-38 67-86 67-59 0-84-38-90-98-12-110 154-137 174-36l-49 2c-2-19-15-32-35-32-30 0-35 28-38 64-6 74 65 87 74 30" id="am"/><path fill="#3a414a" d="M114-157C55-157 80-60 75 0H25v-261h50l-1 109c12-26 28-41 61-42 86-1 58 113 63 194h-50c-7-57 23-157-34-157" id="an"/><g id="l"><use transform="matrix(0.09259259259259256,0,0,0.09259259259259256,0,0)" xlink:href="#am"/><use transform="matrix(0.09259259259259256,0,0,0.09259259259259256,18.518518518518512,0)" xlink:href="#an"/><use transform="matrix(0.09259259259259256,0,0,0.09259259259259256,38.79629629629628,0)" xlink:href="#Z"/><use transform="matrix(0.09259259259259256,0,0,0.09259259259259256,57.314814814814795,0)" xlink:href="#Y"/><use transform="matrix(0.09259259259259256,0,0,0.09259259259259256,86.94444444444441,0)" xlink:href="#Z"/><use transform="matrix(0.09259259259259256,0,0,0.09259259259259256,105.46296296296292,0)" xlink:href="#aa"/><use transform="matrix(0.09259259259259256,0,0,0.09259259259259256,125.74074074074069,0)" xlink:href="#ad"/><use transform="matrix(0.09259259259259256,0,0,0.09259259259259256,146.01851851851848,0)" xlink:href="#V"/></g><path fill="#333" d="M185-189c-5-48-123-54-124 2 14 75 158 14 163 119 3 78-121 87-175 55-17-10-28-26-33-46l33-7c5 56 141 63 141-1 0-78-155-14-162-118-5-82 145-84 179-34 5 7 8 16 11 25" id="ao"/><path fill="#333" d="M100-194c63 0 86 42 84 106H49c0 40 14 67 53 68 26 1 43-12 49-29l28 8c-11 28-37 45-77 45C44 4 14-33 15-96c1-61 26-98 85-98zm52 81c6-60-76-77-97-28-3 7-6 17-6 28h103" id="ap"/><path fill="#333" d="M114-163C36-179 61-72 57 0H25l-1-190h30c1 12-1 29 2 39 6-27 23-49 58-41v29" id="aq"/><path fill="#333" d="M108 0H70L1-190h34L89-25l56-165h34" id="ar"/><path fill="#333" d="M24-231v-30h32v30H24zM24 0v-190h32V0H24" id="as"/><path fill="#333" d="M85-194c31 0 48 13 60 33l-1-100h32l1 261h-30c-2-10 0-23-3-31C134-8 116 4 85 4 32 4 16-35 15-94c0-66 23-100 70-100zm9 24c-40 0-46 34-46 75 0 40 6 74 45 74 42 0 51-32 51-76 0-42-9-74-50-73" id="at"/><path fill="#333" d="M100-194c62-1 85 37 85 99 1 63-27 99-86 99S16-35 15-95c0-66 28-99 85-99zM99-20c44 1 53-31 53-75 0-43-8-75-51-75s-53 32-53 75 10 74 51 75" id="au"/><g id="m"><use transform="matrix(0.06172839506172839,0,0,0.06172839506172839,0,0)" xlink:href="#ao"/><use transform="matrix(0.06172839506172839,0,0,0.06172839506172839,14.814814814814813,0)" xlink:href="#ap"/><use transform="matrix(0.06172839506172839,0,0,0.06172839506172839,27.160493827160494,0)" xlink:href="#aq"/><use transform="matrix(0.06172839506172839,0,0,0.06172839506172839,34.50617283950617,0)" xlink:href="#ar"/><use transform="matrix(0.06172839506172839,0,0,0.06172839506172839,45.61728395061728,0)" xlink:href="#as"/><use transform="matrix(0.06172839506172839,0,0,0.06172839506172839,50.49382716049382,0)" xlink:href="#at"/><use transform="matrix(0.06172839506172839,0,0,0.06172839506172839,62.8395061728395,0)" xlink:href="#au"/><use transform="matrix(0.06172839506172839,0,0,0.06172839506172839,75.18518518518518,0)" xlink:href="#aq"/></g><path fill="#333" d="M205 0l-28-72H64L36 0H1l101-248h38L239 0h-34zm-38-99l-47-123c-12 45-31 82-46 123h93" id="av"/><path fill="#333" d="M59-47c-2 24 18 29 38 22v24C64 9 27 4 27-40v-127H5v-23h24l9-43h21v43h35v23H59v120" id="aw"/><path fill="#333" d="M117-194c89-4 53 116 60 194h-32v-121c0-31-8-49-39-48C34-167 62-67 57 0H25l-1-190h30c1 10-1 24 2 32 11-22 29-35 61-36" id="ax"/><g id="n"><use transform="matrix(0.06172839506172839,0,0,0.06172839506172839,0,0)" xlink:href="#av"/><use transform="matrix(0.06172839506172839,0,0,0.06172839506172839,14.814814814814813,0)" xlink:href="#aw"/><use transform="matrix(0.06172839506172839,0,0,0.06172839506172839,20.98765432098765,0)" xlink:href="#ap"/><use transform="matrix(0.06172839506172839,0,0,0.06172839506172839,33.33333333333333,0)" xlink:href="#ax"/><use transform="matrix(0.06172839506172839,0,0,0.06172839506172839,45.679012345679006,0)" xlink:href="#at"/><use transform="matrix(0.06172839506172839,0,0,0.06172839506172839,58.02469135802468,0)" xlink:href="#ap"/><use transform="matrix(0.06172839506172839,0,0,0.06172839506172839,70.37037037037037,0)" xlink:href="#ax"/><use transform="matrix(0.06172839506172839,0,0,0.06172839506172839,82.71604938271605,0)" xlink:href="#aw"/><use transform="matrix(0.06172839506172839,0,0,0.06172839506172839,88.88888888888889,0)" xlink:href="#ap"/></g><path d="M135-143c-3-34-86-38-87 0 15 53 115 12 119 90S17 21 10-45l28-5c4 36 97 45 98 0-10-56-113-15-118-90-4-57 82-63 122-42 12 7 21 19 24 35" id="ay"/><path d="M100-194c62-1 85 37 85 99 1 63-27 99-86 99S16-35 15-95c0-66 28-99 85-99zM99-20c44 1 53-31 53-75 0-43-8-75-51-75s-53 32-53 75 10 74 51 75" id="az"/><path d="M24 0v-261h32V0H24" id="aA"/><path d="M24-231v-30h32v30H24zM24 0v-190h32V0H24" id="aB"/><path d="M96-169c-40 0-48 33-48 73s9 75 48 75c24 0 41-14 43-38l32 2c-6 37-31 61-74 61-59 0-76-41-82-99-10-93 101-131 147-64 4 7 5 14 7 22l-32 3c-4-21-16-35-41-35" id="aC"/><path d="M59-47c-2 24 18 29 38 22v24C64 9 27 4 27-40v-127H5v-23h24l9-43h21v43h35v23H59v120" id="aD"/><path d="M141-36C126-15 110 5 73 4 37 3 15-17 15-53c-1-64 63-63 125-63 3-35-9-54-41-54-24 1-41 7-42 31l-33-3c5-37 33-52 76-52 45 0 72 20 72 64v82c-1 20 7 32 28 27v20c-31 9-61-2-59-35zM48-53c0 20 12 33 32 33 41-3 63-29 60-74-43 2-92-5-92 41" id="aE"/><path d="M114-163C36-179 61-72 57 0H25l-1-190h30c1 12-1 29 2 39 6-27 23-49 58-41v29" id="aF"/><g id="o"><use transform="matrix(0.05,0,0,0.05,0,0)" xlink:href="#ay"/><use transform="matrix(0.05,0,0,0.05,9,0)" xlink:href="#az"/><use transform="matrix(0.05,0,0,0.05,19,0)" xlink:href="#aA"/><use transform="matrix(0.05,0,0,0.05,22.95,0)" xlink:href="#aB"/><use transform="matrix(0.05,0,0,0.05,26.899999999999995,0)" xlink:href="#aC"/><use transform="matrix(0.05,0,0,0.05,35.9,0)" xlink:href="#aB"/><use transform="matrix(0.05,0,0,0.05,39.85,0)" xlink:href="#aD"/><use transform="matrix(0.05,0,0,0.05,44.85,0)" xlink:href="#aE"/><use transform="matrix(0.05,0,0,0.05,54.85,0)" xlink:href="#aF"/></g><path d="M106-169C34-169 62-67 57 0H25v-261h32l-1 103c12-21 28-36 61-36 89 0 53 116 60 194h-32v-121c2-32-8-49-39-48" id="aG"/><path d="M210-169c-67 3-38 105-44 169h-31v-121c0-29-5-50-35-48C34-165 62-65 56 0H25l-1-190h30c1 10-1 24 2 32 10-44 99-50 107 0 11-21 27-35 58-36 85-2 47 119 55 194h-31v-121c0-29-5-49-35-48" id="aH"/><path d="M85-194c31 0 48 13 60 33l-1-100h32l1 261h-30c-2-10 0-23-3-31C134-8 116 4 85 4 32 4 16-35 15-94c0-66 23-100 70-100zm9 24c-40 0-46 34-46 75 0 40 6 74 45 74 42 0 51-32 51-76 0-42-9-74-50-73" id="aI"/><g id="p"><use transform="matrix(0.05,0,0,0.05,0,0)" xlink:href="#aC"/><use transform="matrix(0.05,0,0,0.05,9,0)" xlink:href="#aG"/><use transform="matrix(0.05,0,0,0.05,19,0)" xlink:href="#aE"/><use transform="matrix(0.05,0,0,0.05,29,0)" xlink:href="#aH"/><use transform="matrix(0.05,0,0,0.05,43.95,0)" xlink:href="#aE"/><use transform="matrix(0.05,0,0,0.05,53.95,0)" xlink:href="#aI"/><use transform="matrix(0.05,0,0,0.05,63.95,0)" xlink:href="#az"/><use transform="matrix(0.05,0,0,0.05,73.95,0)" xlink:href="#ay"/></g><path d="M205 0l-28-72H64L36 0H1l101-248h38L239 0h-34zm-38-99l-47-123c-12 45-31 82-46 123h93" id="aJ"/><path d="M100-194c63 0 86 42 84 106H49c0 40 14 67 53 68 26 1 43-12 49-29l28 8c-11 28-37 45-77 45C44 4 14-33 15-96c1-61 26-98 85-98zm52 81c6-60-76-77-97-28-3 7-6 17-6 28h103" id="aK"/><g id="q"><use transform="matrix(0.05,0,0,0.05,0,0)" xlink:href="#aJ"/><use transform="matrix(0.05,0,0,0.05,12,0)" xlink:href="#aC"/><use transform="matrix(0.05,0,0,0.05,21,0)" xlink:href="#aK"/><use transform="matrix(0.05,0,0,0.05,31,0)" xlink:href="#ay"/><use transform="matrix(0.05,0,0,0.05,40,0)" xlink:href="#ay"/><use transform="matrix(0.05,0,0,0.05,49,0)" xlink:href="#aE"/><use transform="matrix(0.05,0,0,0.05,59,0)" xlink:href="#aF"/></g><path d="M143 4C61 4 22-44 18-125c-5-107 100-154 193-111 17 8 29 25 37 43l-32 9c-13-25-37-40-76-40-61 0-88 39-88 99 0 61 29 100 91 101 35 0 62-11 79-27v-45h-74v-28h105v86C228-13 192 4 143 4" id="aL"/><path d="M117-194c89-4 53 116 60 194h-32v-121c0-31-8-49-39-48C34-167 62-67 57 0H25l-1-190h30c1 10-1 24 2 32 11-22 29-35 61-36" id="aM"/><g id="r"><use transform="matrix(0.05,0,0,0.05,0,0)" xlink:href="#aL"/><use transform="matrix(0.05,0,0,0.05,14,0)" xlink:href="#aK"/><use transform="matrix(0.05,0,0,0.05,24,0)" xlink:href="#aF"/><use transform="matrix(0.05,0,0,0.05,29.950000000000003,0)" xlink:href="#aK"/><use transform="matrix(0.05,0,0,0.05,39.95,0)" xlink:href="#aM"/><use transform="matrix(0.05,0,0,0.05,49.95,0)" xlink:href="#aC"/><use transform="matrix(0.05,0,0,0.05,58.95,0)" xlink:href="#aB"/><use transform="matrix(0.05,0,0,0.05,62.900000000000006,0)" xlink:href="#aE"/><use transform="matrix(0.05,0,0,0.05,72.9,0)" xlink:href="#aF"/></g><path d="M63-220v92h138v28H63V0H30v-248h175v28H63" id="aN"/><path d="M9 0v-24l116-142H16v-24h144v24L44-24h123V0H9" id="aO"/><g id="s"><use transform="matrix(0.05,0,0,0.05,0,0)" xlink:href="#aN"/><use transform="matrix(0.05,0,0,0.05,10.950000000000001,0)" xlink:href="#aE"/><use transform="matrix(0.05,0,0,0.05,20.950000000000003,0)" xlink:href="#aO"/><use transform="matrix(0.05,0,0,0.05,29.950000000000003,0)" xlink:href="#aK"/><use transform="matrix(0.05,0,0,0.05,39.95,0)" xlink:href="#aF"/></g><path d="M177-190C167-65 218 103 67 71c-23-6-38-20-44-43l32-5c15 47 100 32 89-28v-30C133-14 115 1 83 1 29 1 15-40 15-95c0-56 16-97 71-98 29-1 48 16 59 35 1-10 0-23 2-32h30zM94-22c36 0 50-32 50-73 0-42-14-75-50-75-39 0-46 34-46 75s6 73 46 73" id="aP"/><g id="t"><use transform="matrix(0.05,0,0,0.05,0,0)" xlink:href="#aA"/><use transform="matrix(0.05,0,0,0.05,3.95,0)" xlink:href="#az"/><use transform="matrix(0.05,0,0,0.05,13.949999999999998,0)" xlink:href="#aP"/><use transform="matrix(0.05,0,0,0.05,23.95,0)" xlink:href="#aB"/><use transform="matrix(0.05,0,0,0.05,27.899999999999995,0)" xlink:href="#aM"/></g><path fill="#333" d="M210-169c-67 3-38 105-44 169h-31v-121c0-29-5-50-35-48C34-165 62-65 56 0H25l-1-190h30c1 10-1 24 2 32 10-44 99-50 107 0 11-21 27-35 58-36 85-2 47 119 55 194h-31v-121c0-29-5-49-35-48" id="aQ"/><path fill="#333" d="M135-143c-3-34-86-38-87 0 15 53 115 12 119 90S17 21 10-45l28-5c4 36 97 45 98 0-10-56-113-15-118-90-4-57 82-63 122-42 12 7 21 19 24 35" id="aR"/><path fill="#333" d="M141-36C126-15 110 5 73 4 37 3 15-17 15-53c-1-64 63-63 125-63 3-35-9-54-41-54-24 1-41 7-42 31l-33-3c5-37 33-52 76-52 45 0 72 20 72 64v82c-1 20 7 32 28 27v20c-31 9-61-2-59-35zM48-53c0 20 12 33 32 33 41-3 63-29 60-74-43 2-92-5-92 41" id="aS"/><g id="u"><use transform="matrix(0.06172839506172839,0,0,0.06172839506172839,0,0)" xlink:href="#av"/><use transform="matrix(0.06172839506172839,0,0,0.06172839506172839,14.814814814814813,0)" xlink:href="#at"/><use transform="matrix(0.06172839506172839,0,0,0.06172839506172839,27.160493827160494,0)" xlink:href="#aQ"/><use transform="matrix(0.06172839506172839,0,0,0.06172839506172839,45.61728395061728,0)" xlink:href="#as"/><use transform="matrix(0.06172839506172839,0,0,0.06172839506172839,50.49382716049382,0)" xlink:href="#ax"/><use transform="matrix(0.06172839506172839,0,0,0.06172839506172839,62.8395061728395,0)" xlink:href="#as"/><use transform="matrix(0.06172839506172839,0,0,0.06172839506172839,67.71604938271604,0)" xlink:href="#aR"/><use transform="matrix(0.06172839506172839,0,0,0.06172839506172839,78.82716049382715,0)" xlink:href="#aw"/><use transform="matrix(0.06172839506172839,0,0,0.06172839506172839,84.99999999999999,0)" xlink:href="#aq"/><use transform="matrix(0.06172839506172839,0,0,0.06172839506172839,92.34567901234567,0)" xlink:href="#aS"/><use transform="matrix(0.06172839506172839,0,0,0.06172839506172839,104.69135802469135,0)" xlink:href="#at"/><use transform="matrix(0.06172839506172839,0,0,0.06172839506172839,117.03703703703704,0)" xlink:href="#au"/><use transform="matrix(0.06172839506172839,0,0,0.06172839506172839,129.3827160493827,0)" xlink:href="#aq"/></g><path d="M33 0v-248h34V0H33" id="aT"/><path d="M84 4C-5 8 30-112 23-190h32v120c0 31 7 50 39 49 72-2 45-101 50-169h31l1 190h-30c-1-10 1-25-2-33-11 22-28 36-60 37" id="aU"/><g id="v"><use transform="matrix(0.05,0,0,0.05,0,0)" xlink:href="#aT"/><use transform="matrix(0.05,0,0,0.05,5,0)" xlink:href="#aM"/><use transform="matrix(0.05,0,0,0.05,15,0)" xlink:href="#aC"/><use transform="matrix(0.05,0,0,0.05,24,0)" xlink:href="#aA"/><use transform="matrix(0.05,0,0,0.05,27.950000000000003,0)" xlink:href="#aU"/><use transform="matrix(0.05,0,0,0.05,37.95,0)" xlink:href="#aB"/><use transform="matrix(0.05,0,0,0.05,41.900000000000006,0)" xlink:href="#aF"/></g><g id="w"><use transform="matrix(0.05,0,0,0.05,0,0)" xlink:href="#aC"/><use transform="matrix(0.05,0,0,0.05,9,0)" xlink:href="#aG"/><use transform="matrix(0.05,0,0,0.05,19,0)" xlink:href="#aE"/><use transform="matrix(0.05,0,0,0.05,29,0)" xlink:href="#aH"/><use transform="matrix(0.05,0,0,0.05,43.95,0)" xlink:href="#aE"/><use transform="matrix(0.05,0,0,0.05,53.95,0)" xlink:href="#aI"/><use transform="matrix(0.05,0,0,0.05,63.95,0)" xlink:href="#az"/></g><path d="M30 0v-248h187v28H63v79h144v27H63v87h162V0H30" id="aV"/><g id="x"><use transform="matrix(0.05,0,0,0.05,0,0)" xlink:href="#aV"/><use transform="matrix(0.05,0,0,0.05,12,0)" xlink:href="#aI"/><use transform="matrix(0.05,0,0,0.05,22,0)" xlink:href="#aB"/><use transform="matrix(0.05,0,0,0.05,25.950000000000003,0)" xlink:href="#aD"/><use transform="matrix(0.05,0,0,0.05,30.950000000000003,0)" xlink:href="#aE"/><use transform="matrix(0.05,0,0,0.05,40.95,0)" xlink:href="#aF"/></g><path d="M141 0L90-78 38 0H4l68-98-65-92h35l48 74 47-74h35l-64 92 68 98h-35" id="aW"/><g id="y"><use transform="matrix(0.05,0,0,0.05,0,0)" xlink:href="#aV"/><use transform="matrix(0.05,0,0,0.05,12,0)" xlink:href="#aW"/><use transform="matrix(0.05,0,0,0.05,21,0)" xlink:href="#aC"/><use transform="matrix(0.05,0,0,0.05,30,0)" xlink:href="#aA"/><use transform="matrix(0.05,0,0,0.05,33.95,0)" xlink:href="#aU"/><use transform="matrix(0.05,0,0,0.05,43.95,0)" xlink:href="#aB"/><use transform="matrix(0.05,0,0,0.05,47.900000000000006,0)" xlink:href="#aF"/></g><path fill="#333" d="M15-91v-56l181-69v40L49-119l147 57v40" id="aX"/><path fill="#333" d="M185-48c-13 30-37 53-82 52C43 2 14-33 14-96s30-98 90-98c62 0 83 45 84 108H66c0 31 8 55 39 56 18 0 30-7 34-22zm-45-69c5-46-57-63-70-21-2 6-4 13-4 21h74" id="aY"/><path fill="#333" d="M144 0l-44-69L55 0H2l70-98-66-92h53l41 62 40-62h54l-67 91 71 99h-54" id="aZ"/><path fill="#333" d="M115-3C79 11 28 4 28-45v-112H4v-33h27l15-45h31v45h36v33H77v99c-1 23 16 31 38 25v30" id="ba"/><path fill="#333" d="M135-194c87-1 58 113 63 194h-50c-7-57 23-157-34-157-59 0-34 97-39 157H25l-1-190h47c2 12-1 28 3 38 12-26 28-41 61-42" id="bb"/><path fill="#333" d="M88-194c31-1 46 15 58 34l-1-101h50l1 261h-48c-2-10 0-23-3-31C134-8 116 4 84 4 32 4 16-41 15-95c0-56 19-97 73-99zm17 164c33 0 40-30 41-66 1-37-9-64-41-64s-38 30-39 65c0 43 13 65 39 65" id="bc"/><path fill="#333" d="M15-22v-40l146-57-146-57v-40l181 69v56" id="bd"/><g id="z"><use transform="matrix(0.04938271604938272,0,0,0.04938271604938272,0,0)" xlink:href="#aX"/><use transform="matrix(0.04938271604938272,0,0,0.04938271604938272,10.370370370370372,0)" xlink:href="#aX"/><use transform="matrix(0.04938271604938272,0,0,0.04938271604938272,20.740740740740744,0)" xlink:href="#aY"/><use transform="matrix(0.04938271604938272,0,0,0.04938271604938272,30.617283950617285,0)" xlink:href="#aZ"/><use transform="matrix(0.04938271604938272,0,0,0.04938271604938272,40.49382716049384,0)" xlink:href="#ba"/><use transform="matrix(0.04938271604938272,0,0,0.04938271604938272,46.37037037037038,0)" xlink:href="#aY"/><use transform="matrix(0.04938271604938272,0,0,0.04938271604938272,56.24691358024693,0)" xlink:href="#bb"/><use transform="matrix(0.04938271604938272,0,0,0.04938271604938272,67.06172839506173,0)" xlink:href="#bc"/><use transform="matrix(0.04938271604938272,0,0,0.04938271604938272,77.87654320987654,0)" xlink:href="#bd"/><use transform="matrix(0.04938271604938272,0,0,0.04938271604938272,88.24691358024691,0)" xlink:href="#bd"/></g><g id="A"><use transform="matrix(0.05,0,0,0.05,0,0)" xlink:href="#aJ"/><use transform="matrix(0.05,0,0,0.05,12,0)" xlink:href="#aC"/><use transform="matrix(0.05,0,0,0.05,21,0)" xlink:href="#aK"/><use transform="matrix(0.05,0,0,0.05,31,0)" xlink:href="#ay"/><use transform="matrix(0.05,0,0,0.05,40,0)" xlink:href="#ay"/><use transform="matrix(0.05,0,0,0.05,49,0)" xlink:href="#aE"/><use transform="matrix(0.05,0,0,0.05,59,0)" xlink:href="#aF"/></g><g id="B"><use transform="matrix(0.05,0,0,0.05,0,0)" xlink:href="#aL"/><use transform="matrix(0.05,0,0,0.05,14,0)" xlink:href="#aK"/><use transform="matrix(0.05,0,0,0.05,24,0)" xlink:href="#aF"/><use transform="matrix(0.05,0,0,0.05,29.950000000000003,0)" xlink:href="#aE"/><use transform="matrix(0.05,0,0,0.05,39.95,0)" xlink:href="#aF"/></g><path d="M100-194c62-1 85 37 85 99 1 63-27 99-86 99S16-35 15-95c0-66 28-99 85-99zM99-20c44 1 53-31 53-75 0-43-8-75-51-75s-53 32-53 75 10 74 51 75zM76-211c8-23 27-35 38-54h36v5l-58 49H76" id="be"/><g id="C"><use transform="matrix(0.05,0,0,0.05,0,0)" xlink:href="#aC"/><use transform="matrix(0.05,0,0,0.05,9,0)" xlink:href="#be"/><use transform="matrix(0.05,0,0,0.05,19,0)" xlink:href="#aI"/><use transform="matrix(0.05,0,0,0.05,29,0)" xlink:href="#aB"/><use transform="matrix(0.05,0,0,0.05,32.95,0)" xlink:href="#aP"/><use transform="matrix(0.05,0,0,0.05,42.95,0)" xlink:href="#az"/></g><path d="M160-131c35 5 61 23 61 61C221 17 115-2 30 0v-248c76 3 177-17 177 60 0 33-19 50-47 57zm-97-11c50-1 110 9 110-42 0-47-63-36-110-37v79zm0 115c55-2 124 14 124-45 0-56-70-42-124-44v89" id="bf"/><g id="D"><use transform="matrix(0.05,0,0,0.05,0,0)" xlink:href="#bf"/><use transform="matrix(0.05,0,0,0.05,12,0)" xlink:href="#aU"/><use transform="matrix(0.05,0,0,0.05,22,0)" xlink:href="#ay"/><use transform="matrix(0.05,0,0,0.05,31,0)" xlink:href="#aC"/><use transform="matrix(0.05,0,0,0.05,40,0)" xlink:href="#aE"/><use transform="matrix(0.05,0,0,0.05,50,0)" xlink:href="#aF"/></g><g id="E"><use transform="matrix(0.05,0,0,0.05,0,0)" xlink:href="#aC"/><use transform="matrix(0.05,0,0,0.05,9,0)" xlink:href="#aG"/><use transform="matrix(0.05,0,0,0.05,19,0)" xlink:href="#aE"/><use transform="matrix(0.05,0,0,0.05,29,0)" xlink:href="#aH"/><use transform="matrix(0.05,0,0,0.05,43.95,0)" xlink:href="#aE"/><use transform="matrix(0.05,0,0,0.05,53.95,0)" xlink:href="#aI"/><use transform="matrix(0.05,0,0,0.05,63.95,0)" xlink:href="#az"/></g><path d="M115-194c55 1 70 41 70 98S169 2 115 4C84 4 66-9 55-30l1 105H24l-1-265h31l2 30c10-21 28-34 59-34zm-8 174c40 0 45-34 45-75s-6-73-45-74c-42 0-51 32-51 76 0 43 10 73 51 73" id="bg"/><g id="F"><use transform="matrix(0.05,0,0,0.05,0,0)" xlink:href="#bg"/><use transform="matrix(0.05,0,0,0.05,10,0)" xlink:href="#az"/><use transform="matrix(0.05,0,0,0.05,20,0)" xlink:href="#aF"/></g><g id="G"><use transform="matrix(0.05,0,0,0.05,0,0)" xlink:href="#aC"/><use transform="matrix(0.05,0,0,0.05,9,0)" xlink:href="#be"/><use transform="matrix(0.05,0,0,0.05,19,0)" xlink:href="#aI"/><use transform="matrix(0.05,0,0,0.05,29,0)" xlink:href="#aB"/><use transform="matrix(0.05,0,0,0.05,32.95,0)" xlink:href="#aP"/><use transform="matrix(0.05,0,0,0.05,42.95,0)" xlink:href="#az"/></g><path d="M240 0l2-218c-23 76-54 145-80 218h-23L58-218 59 0H30v-248h44l77 211c21-75 51-140 76-211h43V0h-30" id="bh"/><g id="H"><use transform="matrix(0.05,0,0,0.05,0,0)" xlink:href="#bh"/><use transform="matrix(0.05,0,0,0.05,14.950000000000001,0)" xlink:href="#az"/><use transform="matrix(0.05,0,0,0.05,24.950000000000003,0)" xlink:href="#ay"/><use transform="matrix(0.05,0,0,0.05,33.95,0)" xlink:href="#aD"/><use transform="matrix(0.05,0,0,0.05,38.95,0)" xlink:href="#aF"/><use transform="matrix(0.05,0,0,0.05,44.900000000000006,0)" xlink:href="#aE"/><use transform="matrix(0.05,0,0,0.05,54.900000000000006,0)" xlink:href="#aF"/></g><g id="I"><use transform="matrix(0.05,0,0,0.05,0,0)" xlink:href="#aH"/><use transform="matrix(0.05,0,0,0.05,14.950000000000001,0)" xlink:href="#aK"/><use transform="matrix(0.05,0,0,0.05,24.950000000000003,0)" xlink:href="#aM"/><use transform="matrix(0.05,0,0,0.05,34.95,0)" xlink:href="#ay"/><use transform="matrix(0.05,0,0,0.05,43.95,0)" xlink:href="#aE"/><use transform="matrix(0.05,0,0,0.05,53.95,0)" xlink:href="#aP"/><use transform="matrix(0.05,0,0,0.05,63.95,0)" xlink:href="#aK"/><use transform="matrix(0.05,0,0,0.05,73.95,0)" xlink:href="#aH"/></g><g id="J"><use transform="matrix(0.05,0,0,0.05,0,0)" xlink:href="#aI"/><use transform="matrix(0.05,0,0,0.05,10,0)" xlink:href="#aK"/></g><g id="K"><use transform="matrix(0.05,0,0,0.05,0,0)" xlink:href="#aK"/><use transform="matrix(0.05,0,0,0.05,10,0)" xlink:href="#aF"/><use transform="matrix(0.05,0,0,0.05,15.949999999999998,0)" xlink:href="#aF"/><use transform="matrix(0.05,0,0,0.05,21.9,0)" xlink:href="#az"/></g><g id="L"><use transform="matrix(0.05,0,0,0.05,0,0)" xlink:href="#aJ"/><use transform="matrix(0.05,0,0,0.05,12,0)" xlink:href="#aD"/><use transform="matrix(0.05,0,0,0.05,17,0)" xlink:href="#aK"/><use transform="matrix(0.05,0,0,0.05,27,0)" xlink:href="#aM"/><use transform="matrix(0.05,0,0,0.05,37,0)" xlink:href="#aI"/><use transform="matrix(0.05,0,0,0.05,47,0)" xlink:href="#aK"/><use transform="matrix(0.05,0,0,0.05,57,0)" xlink:href="#aF"/></g><path fill="#333" d="M25-224v-37h50v37H25zM25 0v-190h50V0H25" id="bi"/><path fill="#333" d="M190-63c-7 42-38 67-86 67-59 0-84-38-90-98-12-110 154-137 174-36l-49 2c-2-19-15-32-35-32-30 0-35 28-38 64-6 74 65 87 74 30" id="bj"/><path fill="#333" d="M25 0v-261h50V0H25" id="bk"/><path fill="#333" d="M85 4C-2 5 27-109 22-190h50c7 57-23 150 33 157 60-5 35-97 40-157h50l1 190h-47c-2-12 1-28-3-38-12 25-28 42-61 42" id="bl"/><g id="M"><use transform="matrix(0.04938271604938272,0,0,0.04938271604938272,0,0)" xlink:href="#aX"/><use transform="matrix(0.04938271604938272,0,0,0.04938271604938272,10.370370370370372,0)" xlink:href="#aX"/><use transform="matrix(0.04938271604938272,0,0,0.04938271604938272,20.740740740740744,0)" xlink:href="#bi"/><use transform="matrix(0.04938271604938272,0,0,0.04938271604938272,25.679012345679016,0)" xlink:href="#bb"/><use transform="matrix(0.04938271604938272,0,0,0.04938271604938272,36.49382716049383,0)" xlink:href="#bj"/><use transform="matrix(0.04938271604938272,0,0,0.04938271604938272,46.370370370370374,0)" xlink:href="#bk"/><use transform="matrix(0.04938271604938272,0,0,0.04938271604938272,51.308641975308646,0)" xlink:href="#bl"/><use transform="matrix(0.04938271604938272,0,0,0.04938271604938272,62.12345679012346,0)" xlink:href="#bc"/><use transform="matrix(0.04938271604938272,0,0,0.04938271604938272,72.93827160493828,0)" xlink:href="#aY"/><use transform="matrix(0.04938271604938272,0,0,0.04938271604938272,82.81481481481482,0)" xlink:href="#bd"/><use transform="matrix(0.04938271604938272,0,0,0.04938271604938272,93.18518518518519,0)" xlink:href="#bd"/></g><path d="M137 0h-34L2-248h35l83 218 83-218h36" id="bm"/><path d="M101-234c-31-9-42 10-38 44h38v23H63V0H32v-167H5v-23h27c-7-52 17-82 69-68v24" id="bn"/><g id="N"><use transform="matrix(0.05,0,0,0.05,0,0)" xlink:href="#bm"/><use transform="matrix(0.05,0,0,0.05,11,0)" xlink:href="#aK"/><use transform="matrix(0.05,0,0,0.05,21,0)" xlink:href="#aF"/><use transform="matrix(0.05,0,0,0.05,26.950000000000003,0)" xlink:href="#aB"/><use transform="matrix(0.05,0,0,0.05,30.899999999999995,0)" xlink:href="#bn"/><use transform="matrix(0.05,0,0,0.05,35.9,0)" xlink:href="#aB"/><use transform="matrix(0.05,0,0,0.05,39.85,0)" xlink:href="#aC"/><use transform="matrix(0.05,0,0,0.05,48.85,0)" xlink:href="#aE"/><use transform="matrix(0.05,0,0,0.05,58.85,0)" xlink:href="#aF"/></g><g id="O"><use transform="matrix(0.05,0,0,0.05,0,0)" xlink:href="#ay"/><use transform="matrix(0.05,0,0,0.05,9,0)" xlink:href="#aK"/><use transform="matrix(0.05,0,0,0.05,19,0)" xlink:href="#aM"/><use transform="matrix(0.05,0,0,0.05,29,0)" xlink:href="#aG"/><use transform="matrix(0.05,0,0,0.05,39,0)" xlink:href="#aE"/></g><g id="P"><use transform="matrix(0.05,0,0,0.05,0,0)" xlink:href="#bh"/><use transform="matrix(0.05,0,0,0.05,14.950000000000001,0)" xlink:href="#az"/><use transform="matrix(0.05,0,0,0.05,24.950000000000003,0)" xlink:href="#aI"/><use transform="matrix(0.05,0,0,0.05,34.95,0)" xlink:href="#aB"/><use transform="matrix(0.05,0,0,0.05,38.900000000000006,0)" xlink:href="#bn"/><use transform="matrix(0.05,0,0,0.05,43.900000000000006,0)" xlink:href="#aB"/><use transform="matrix(0.05,0,0,0.05,47.85000000000001,0)" xlink:href="#aC"/><use transform="matrix(0.05,0,0,0.05,56.85,0)" xlink:href="#aE"/><use transform="matrix(0.05,0,0,0.05,66.85000000000001,0)" xlink:href="#aF"/></g><g id="Q"><use transform="matrix(0.05,0,0,0.05,0,0)" xlink:href="#ay"/><use transform="matrix(0.05,0,0,0.05,9,0)" xlink:href="#aD"/><use transform="matrix(0.05,0,0,0.05,14,0)" xlink:href="#aE"/><use transform="matrix(0.05,0,0,0.05,24,0)" xlink:href="#aD"/><use transform="matrix(0.05,0,0,0.05,29,0)" xlink:href="#aU"/><use transform="matrix(0.05,0,0,0.05,39,0)" xlink:href="#ay"/></g><g id="R"><use transform="matrix(0.05,0,0,0.05,0,0)" xlink:href="#aV"/><use transform="matrix(0.05,0,0,0.05,12,0)" xlink:href="#aM"/><use transform="matrix(0.05,0,0,0.05,22,0)" xlink:href="#aC"/><use transform="matrix(0.05,0,0,0.05,31,0)" xlink:href="#aK"/><use transform="matrix(0.05,0,0,0.05,41,0)" xlink:href="#aF"/><use transform="matrix(0.05,0,0,0.05,46.95,0)" xlink:href="#aF"/><use transform="matrix(0.05,0,0,0.05,52.900000000000006,0)" xlink:href="#aE"/><use transform="matrix(0.05,0,0,0.05,62.900000000000006,0)" xlink:href="#aF"/></g><path d="M115-194c53 0 69 39 70 98 0 66-23 100-70 100C84 3 66-7 56-30L54 0H23l1-261h32v101c10-23 28-34 59-34zm-8 174c40 0 45-34 45-75 0-40-5-75-45-74-42 0-51 32-51 76 0 43 10 73 51 73" id="bo"/><g id="S"><use transform="matrix(0.05,0,0,0.05,0,0)" xlink:href="#aJ"/><use transform="matrix(0.05,0,0,0.05,12,0)" xlink:href="#aD"/><use transform="matrix(0.05,0,0,0.05,17,0)" xlink:href="#aF"/><use transform="matrix(0.05,0,0,0.05,22.95,0)" xlink:href="#aB"/><use transform="matrix(0.05,0,0,0.05,26.899999999999995,0)" xlink:href="#bo"/><use transform="matrix(0.05,0,0,0.05,36.9,0)" xlink:href="#aU"/><use transform="matrix(0.05,0,0,0.05,46.9,0)" xlink:href="#aB"/><use transform="matrix(0.05,0,0,0.05,50.85,0)" xlink:href="#aF"/></g></defs></g></svg>